<svg xml:space="preserve" style="enable-background:new 0 0 215.1 59.4;" viewBox="0 0 215.1 59.4" y="0px" x="0px" xmlns:xlink="http://www.w3.org/1999/xlink" xmlns="http://www.w3.org/2000/svg" id="Layer_1" version="1.1">
<style type="text/css">
	.st0{fill:#004591;}
</style>
<g transform="translate(-66.849 -103.857)" id="Group_23">
	<g transform="translate(142.72 103.857)" id="Group_19">
		<g id="Group_18">
			<path d="M0,0.7h13c3.9,0.1,6,0.7,7.9,2.4c2.1,1.9,2.9,4.3,2.9,8.4V23c0,4.4-0.7,6.5-2.9,8.4
				c-1.9,1.7-4,2.3-7.9,2.3H0v-5.4c1.3-0.3,1.7-1,1.7-2.6v-17c0-1.7-0.4-2.3-1.7-2.6V0.7z M9.3,27.3h2.8c2.8,0,4-1,4-3.3V10.5
				c0-2.3-1.2-3.3-4-3.3H9.3L9.3,27.3z" class="st0" id="Path_37"></path>
			<path d="M34.9,24.5l-0.3,1.4c-0.1,0.3-0.1,0.7-0.1,1c0,0.9,0.6,1.4,1.8,1.5v5.4H26.2v-5.4
				c1.1-0.3,1.5-1,1.9-3.2L33,0.7h11.3l5.1,24.7c0.4,2.1,0.7,2.6,1.9,2.9v5.4H40v-5.4c1.1,0,1.7-0.5,1.7-1.5c0-0.1-0.1-0.2-0.1-0.8
				l-0.1-0.2l-0.2-1.4l-1-4.8L37.9,8.9l-2.1,10.9" class="st0" id="Path_38"></path>
			<path d="M53.6,28.4c1.3-0.3,1.7-1,1.7-2.6v-17c0-1.7-0.4-2.3-1.7-2.6V0.7h12.5l3.8,15.7l3.8-15.7h11.9
				v5.4c-1.3,0.3-1.7,1-1.7,2.6v17c0,1.7,0.4,2.3,1.7,2.6v5.4H74.5v-5.4c1.3-0.3,1.7-1,1.7-2.6V12.1l-5.6,21.7H67l-5.4-21.7v13.6
				c0,1.7,0.4,2.3,1.7,2.6v5.4h-9.8L53.6,28.4z" class="st0" id="Path_39"></path>
			<path d="M99.6,0.7v5.4c-1.3,0.3-1.7,0.9-1.7,2.6v14.5c0,1.7,0.2,2.5,0.8,3.2c0.7,0.8,1.7,1.2,2.8,1.2
				c2.4,0,3.6-1.5,3.6-4.3V8.9c0-1.7-0.4-2.4-1.7-2.7V0.7h10.1v5.4c-1.3,0.3-1.7,1-1.7,2.6v14.5c0,3.7-0.2,5.1-1.2,6.7
				c-1.7,2.7-5,4.3-9.4,4.3c-6.8,0-10.8-3.5-10.8-9.3V8.8c0-1.7-0.4-2.3-1.7-2.6V0.7L99.6,0.7z" class="st0" id="Path_40"></path>
			<path d="M138.7,11.6h-7.3v-0.5l0-0.9c0.2-1.8-1.1-3.4-2.9-3.6c-0.2,0-0.4,0-0.6,0c-2,0-3.5,1.3-3.5,3
				c0,1.5,1.1,2.4,3.9,3.5l3.2,1.2c5.9,2.2,7.9,4.7,7.9,9.7c0,6.5-4.3,10.5-11.3,10.5c-4.1,0-8-1.3-11.2-3.8v-8.4h7.6v0.4
				c-0.1,1.1,0,2.2,0.4,3.2c0.7,1.2,1.9,1.9,3.3,1.8c1.9,0.1,3.4-1.3,3.6-3.1c0-0.1,0-0.2,0-0.3c0-2.1-1-3-5.5-4.7
				c-1.7-0.6-3.3-1.3-4.9-2.1c-3-1.6-4.4-4.1-4.4-7.7c0-6.1,4.2-9.8,11.3-9.8c3.9,0,7.6,1.3,10.7,3.8L138.7,11.6z" class="st0" id="Path_41"></path>
		</g>
	</g>
	<g transform="translate(144.116 142.814)" id="Group_21">
		<g id="Group_20">
			<path d="M10.6,15.4c-1.6,0.8-3.4,1.2-5.3,1.2c-1.4,0.1-2.9-0.3-4.1-1.2c-0.9-0.7-1.4-1.9-1.3-3V4.2
				C0,1.4,1.8,0,5.4,0c1.8,0,3.6,0.4,5.2,1.1v4.5H7.1V5.4c0-0.9,0-1.2-0.3-1.5C6.5,3.5,6,3.2,5.4,3.2C4.8,3.2,4.3,3.5,4,3.9
				c-0.3,0.4-0.4,1-0.3,1.5v5.5c0,1.2,0,1.4,0.3,1.7c0.3,0.5,0.9,0.7,1.4,0.7c0.6,0,1.1-0.3,1.4-0.7c0.2-0.4,0.3-0.6,0.3-1.5V9.9
				h3.5V15.4z" class="st0" id="Path_42"></path>
			<path d="M24.8,5.4c1.5-0.8,3.1-1.2,4.8-1.2c1.1-0.1,2.2,0.3,3.1,0.9c0.8,0.5,1.3,1.5,1.2,2.4v5.3
				c0,0.7,0.1,1,0.7,1.1v2.4h-3.9v-1.2c-0.9,0.9-2.1,1.4-3.3,1.4c-1.6,0.1-3.1-1.1-3.2-2.8c0-0.2,0-0.3,0-0.5
				c-0.1-1.1,0.5-2.2,1.4-2.8c0.5-0.3,1.1-0.6,1.7-0.8c0.2-0.1,0.5-0.2,1-0.3c0.5-0.2,0.7-0.3,0.9-0.3l1.1-0.4c0.1,0,0.2,0,0.3-0.1
				V8.3c0-1.3-0.3-1.8-1.2-1.8c-0.6-0.1-1.1,0.4-1.2,1c0,0.1,0,0.1,0,0.2v0.6h-3.3L24.8,5.4z M30.2,11l-0.5,0.2c0,0-0.2,0.1-0.5,0.2
				l-0.5,0.2c-0.7,0.4-1,0.7-1,1.3c0,0.5,0.4,0.9,0.8,0.9c0,0,0,0,0.1,0c0.7-0.1,1.4-0.5,1.8-1.1v-1.9C30.4,10.9,30.3,11,30.2,11
				L30.2,11z" class="st0" id="Path_43"></path>
			<path d="M47.7,18c0.6-0.2,0.7-0.4,0.7-1.5V8.4c0-1.1-0.1-1.3-0.7-1.5V4.5h4.1v0.8l0,0L52.3,5
				c0.7-0.5,1.6-0.7,2.4-0.7c1.1,0,2.1,0.4,2.9,1.1c0.6,0.6,0.9,1.5,0.8,2.4V13c0.1,1-0.3,2-1,2.7c-0.7,0.6-1.6,0.9-2.6,0.9
				c-1,0-1.9-0.3-2.8-0.7l-0.2-0.1v0.9c0,1.1,0.1,1.3,0.7,1.5v2.4h-4.8L47.7,18z M53.4,14c0.5,0,0.9-0.2,1.2-0.5
				C55,13,55.1,12.5,55,12V8.3c0.1-0.7-0.5-1.4-1.2-1.5c-0.1,0-0.2,0-0.3,0c-0.6,0-1.2,0.3-1.7,0.7v6C52.3,13.8,52.8,13.9,53.4,14
				L53.4,14z" class="st0" id="Path_44"></path>
			<path d="M71.9,13.9c0.6-0.2,0.7-0.4,0.7-1.5v-4c0-1.1-0.1-1.3-0.7-1.5V4.5H76v7.9
				c0,1.1,0.1,1.3,0.7,1.5v2.4h-4.8L71.9,13.9z M74.2,3.8c-1,0-1.9-0.8-1.9-1.9c0-1,0.8-1.9,1.9-1.9c1,0,1.9,0.8,1.9,1.9
				c0,0,0,0,0,0C76.1,3,75.2,3.8,74.2,3.8C74.2,3.8,74.2,3.8,74.2,3.8L74.2,3.8z" class="st0" id="Path_45"></path>
			<path d="M95.1,7h-1.4v5.2c0,1.1,0.4,1.7,1.2,1.7c0.1,0,0.2,0,0.3,0v2.4c-0.5,0.2-1.1,0.3-1.6,0.3
				c-1.2,0.1-2.3-0.5-2.8-1.6c-0.3-0.7-0.4-1.5-0.3-2.3V7h-0.6V4.5h0.6V2.3l3.4-1v3.2h1.4V7z" class="st0" id="Path_46"></path>
			<path d="M108.7,5.4c1.5-0.8,3.1-1.2,4.8-1.2c1.1-0.1,2.2,0.3,3.1,0.9c0.8,0.5,1.3,1.5,1.2,2.4v5.3
				c0,0.7,0.1,1,0.7,1.1v2.4h-3.9v-1.2c-0.9,0.9-2.1,1.4-3.3,1.4c-1.6,0.1-3.1-1.1-3.2-2.8c0-0.2,0-0.3,0-0.5
				c-0.1-1.1,0.5-2.2,1.4-2.8c0.5-0.3,1.1-0.6,1.7-0.8c0.2-0.1,0.5-0.2,1-0.3c0.5-0.2,0.7-0.3,0.9-0.3l1.1-0.4c0.1,0,0.2,0,0.3-0.1
				V8.3c0-1.3-0.3-1.8-1.2-1.8c-0.6-0.1-1.1,0.4-1.2,1c0,0.1,0,0.1,0,0.2v0.6h-3.3L108.7,5.4z M114.1,11l-0.5,0.2
				c0,0-0.2,0.1-0.5,0.2l-0.5,0.2c-0.7,0.4-1,0.7-1,1.3c0,0.5,0.4,0.9,0.8,0.9c0,0,0,0,0.1,0c0.7-0.1,1.4-0.5,1.8-1.1v-1.9
				C114.3,10.9,114.2,11,114.1,11L114.1,11z" class="st0" id="Path_47"></path>
			<path d="M131.6,13.9c0.6-0.2,0.7-0.4,0.7-1.5V4.2c0-1.1-0.1-1.3-0.7-1.5V0.3h4.1v12.1
				c0,1.1,0.1,1.3,0.7,1.5v2.4h-4.8L131.6,13.9z" class="st0" id="Path_48"></path>
		</g>
	</g>
	<g transform="translate(66.849 103.857)" id="Group_22">
		<path d="M39.5,8.5c0.9,0.2,1.8,0.4,2.6,0.6c3.3,0.9,5.9,2.9,8.3,5.1c2,1.7,4.3,1.5,5.7-0.5
			c0.5-0.7,0.7-1.3,0-2c-1.8-2-3.8-3.8-5.9-5.5c-6.8-5-15.4-7.1-23.8-5.8C20.3,1.2,14.5,3.9,9.8,8.1C3.2,13.9-0.5,22.4,0,31.3
			c-0.1,1,0.5,1.9,1.5,2.1c3.6,1.1,7.3,1.7,11.1,1.8c4,0.3,8-1.1,11-3.8c2.5-2.3,5-4.6,7.6-6.9c1.7-1.5,3.5-2.8,5.9-3
			c0.3-2.1-1.2-4.1-3.3-4.4c-0.2,0-0.4,0-0.7,0c-3.5-0.2-6.1,1.5-8.5,3.6c-1.6,1.6-4,2.2-6.2,1.6c2.7-2.2,5.6-4.1,8.7-5.9
			c4.3-2.4,8.7-2.6,13.1,0.3c2,1.3,4.2,2.4,6.4,3.4c3.1,1.3,5.7,0.8,7.5-1.3C49.7,14.5,45.1,10.8,39.5,8.5z M22.7,50.8
			c-3.2-0.3-6.2-1.6-8.7-3.7c-1.3-1.1-2.7-2-4.2-2.9c-1.2-0.6-2.9,0.4-3.9,1.9c-0.8,1.3,0.3,1.9,1,2.5c1.6,1.7,3.4,3.3,5.3,4.8
			c7.2,5.2,15.2,6.8,23.9,5.6c6-0.8,11.5-3.3,16-7.3c6.9-5.8,10.7-14.5,10.2-23.5c0.1-1-0.6-2-1.6-2.2c-4.1-1.2-8.4-1.8-12.8-1.6
			c-2.6-0.1-5.1,0.7-7.1,2.2c-2.7,2.1-5.2,4.5-7.8,6.8c-2.3,2-4.4,4.4-7.7,4.6c-0.4,2,0.9,4,2.9,4.4c0.2,0,0.4,0.1,0.6,0.1
			c3.5,0.4,6.2-1.2,8.6-3.4c1.7-1.7,4.2-2.5,6.5-1.9c-2.4,2-4.8,3.7-7.4,5.4c-4.9,3-9.8,3.5-14.9,0c-2.2-1.5-4.7-2.6-7.2-3.4
			c-2.2-0.8-4.7-0.1-6.3,1.7C12.6,44.8,17.1,48.6,22.7,50.8z" class="st0" id="Path_49"></path>
		<path d="M39.5,8.5c5.6,2.4,10.2,6.1,14.6,10.2c-1.9,2.1-4.4,2.7-7.5,1.3c-2.2-0.9-4.4-2-6.4-3.4
			c-4.3-3-8.7-2.8-13.1-0.3c-3,1.8-5.9,3.7-8.7,5.9c2.2,0.7,4.6,0.1,6.2-1.6c2.4-2.2,5-3.9,8.5-3.6c2.2,0,3.9,1.7,4,3.8
			c0,0.2,0,0.4,0,0.7c-2.4,0.2-4.2,1.5-5.9,3c-2.5,2.3-5,4.6-7.6,6.9c-3,2.7-7,4-11,3.8c-3.8,0-7.5-0.6-11.1-1.8
			c-1-0.2-1.6-1.1-1.5-2.1c-0.5-8.8,3.1-17.4,9.8-23.2c4.6-4.2,10.5-6.9,16.7-7.7c8.4-1.4,17,0.7,23.8,5.8c2.1,1.7,4,3.6,5.9,5.5
			c0.7,0.7,0.5,1.3,0,2c-1.5,2-3.8,2.3-5.7,0.5C48,12,45.4,10,42.1,9.1C41.3,8.8,40.4,8.7,39.5,8.5z" class="st0" id="Path_50"></path>
		<path d="M22.7,50.8c-5.7-2.2-10.2-6-14.6-10c1.5-1.8,4-2.5,6.3-1.7c2.5,0.8,5,2,7.2,3.4
			c5.1,3.6,10,3,14.9,0c2.6-1.6,5.1-3.4,7.4-5.4c-2.4-0.6-4.8,0.2-6.5,1.9c-2.4,2.2-5.1,3.8-8.6,3.4c-2.1-0.1-3.7-1.8-3.6-3.9
			c0-0.2,0-0.4,0.1-0.6c3.3-0.2,5.4-2.6,7.7-4.6c2.6-2.2,5.1-4.6,7.8-6.8c2.1-1.5,4.6-2.2,7.1-2.2c4.3-0.2,8.6,0.4,12.8,1.6
			c1,0.2,1.7,1.1,1.6,2.2c0.5,9-3.3,17.7-10.2,23.5c-4.5,4-10.1,6.5-16,7.3c-8.7,1.2-16.7-0.4-23.9-5.6c-1.9-1.5-3.7-3.1-5.3-4.8
			c-0.6-0.6-1.8-1.3-1-2.5c1-1.5,2.7-2.5,3.9-1.9c1.5,0.8,2.9,1.8,4.2,2.9C16.5,49.2,19.5,50.5,22.7,50.8z" class="st0" id="Path_51"></path>
	</g>
</g>
</svg>
