<svg id="Group_21" data-name="Group 21" xmlns="http://www.w3.org/2000/svg" xmlns:xlink="http://www.w3.org/1999/xlink" width="138" height="38.023" viewBox="0 0 138 38.023">
  <defs>
    <clipPath id="clip-path">
      <rect id="Rectangle_53" data-name="Rectangle 53" width="138" height="38.023" fill="#fff"/>
    </clipPath>
  </defs>
  <g id="Group_12" data-name="Group 12" clip-path="url(#clip-path)">
    <path id="Path_43" data-name="Path 43" d="M24.232,15.515c0-7.211-4.046-12.368-10.071-12.368S4.09,8.3,4.09,15.515,8.136,27.883,14.161,27.883s10.071-5.157,10.071-12.368M0,15.515C0,6.905,5.761,0,14.161,0S28.322,6.905,28.322,15.515,22.561,31.03,14.161,31.03,0,24.125,0,15.515" fill="#fff"/>
    <path id="Path_44" data-name="Path 44" d="M175.254,55.628l-2.947-.656c-4.222-.918-6.773-2.8-6.773-6.25,0-3.627,3.475-6.249,8.18-6.249,5.014,0,8.532,2.885,8.84,6.905H178.9c-.308-2.535-2.111-4.021-5.189-4.021-2.551,0-4.618,1.005-4.618,3.016,0,1.792,1.319,2.4,4.618,3.147l2.947.655c4.221.962,6.333,3.1,6.333,6.643,0,3.759-3.079,6.381-8.8,6.381s-9.06-3.977-9.323-8.085h3.651a5.513,5.513,0,0,0,5.805,5.2c2.814,0,5.145-1.224,5.145-3.278,0-1.442-.88-2.666-4.222-3.409" transform="translate(-132.64 -34.169)" fill="#fff"/>
    <path id="Path_45" data-name="Path 45" d="M294.3,45.358c-4.222,0-6.509,3.627-6.509,8.479s2.287,8.478,6.509,8.478,6.6-3.627,6.6-8.478-2.374-8.479-6.6-8.479M295.4,65.2a7.6,7.6,0,0,1-7.345-5.069h-.088V72.191h-3.651V42.91h3.651v4.633h.088a7.6,7.6,0,0,1,7.345-5.07c6.245,0,9.456,5.332,9.456,11.363S301.643,65.2,295.4,65.2" transform="translate(-228.729 -34.169)" fill="#fff"/>
    <path id="Path_46" data-name="Path 46" d="M420.679,64.764h-3.65V42.912h3.518v4.283h.088a6.7,6.7,0,0,1,6.64-4.72v3.933h-.791c-3.562,0-5.805,1.311-5.805,5.245Z" transform="translate(-335.496 -34.171)" fill="#fff"/>
    <path id="Path_47" data-name="Path 47" d="M484.6,52.044h12.622c-.308-3.933-2.418-6.687-6.288-6.687s-5.981,2.754-6.333,6.687M491.112,65.2c-6.552,0-10.2-5.288-10.2-11.363s3.475-11.363,10.028-11.363,10.51,5.113,9.895,12.456H484.6c.176,4.545,2.814,7.386,6.86,7.386,3.827,0,4.969-2.666,5.454-4.457h3.65c-.791,3.889-3.43,7.342-9.455,7.342" transform="translate(-386.887 -34.169)" fill="#fff"/>
    <path id="Path_48" data-name="Path 48" d="M606.08,73.992H602.3l3.475-9.615h-3.606l-7.212-19.666h3.782l7.125,19.4,6.992-19.4h3.782Z" transform="translate(-478.634 -35.97)" fill="#fff"/>
  </g>
</svg>
