<svg xml:space="preserve" style="enable-background:new 0 0 283.5 283.5;" viewBox="0 0 283.5 283.5" y="0px" x="0px" xmlns:xlink="http://www.w3.org/1999/xlink" xmlns="http://www.w3.org/2000/svg" id="Layer_1" version="1.1">
<style type="text/css">
	.st0{fill:#F49B5C;}
</style>
<path d="M153,131.2v57.1c0,10.1,0.8,16,7,18.8h-35.8c6.9-3,7.3-9.4,7.3-18.8v-44.8C131.6,143.4,143.2,141.7,153,131.2z
	 M72.5,207c6.2-2.7,7-8.6,7-18.8V92.1c0-10.2-1.4-16-7.5-18.8h29.1l-0.1,71.8v43.2c0,9.4,0.4,15.8,7.1,18.8H72.5z M171.5,144.3
	c0.7-0.4,1.4-0.8,2-1.3" class="st0"></path>
<path d="M193,108.9c0-24.1-19.6-35.5-19.6-35.5c21.7,0,39.2,15.9,39.2,35.5s-17.6,35.5-39.2,35.5
	C173.4,144.4,193,133.5,193,108.9z" class="st0"></path>
<path d="M153,73.3l-28.8,0c0,0,16.8-0.4,28.8,13.2V73.3z" class="st0"></path>
<path d="M142.1,271.5c-71.9,0-130.3-58.5-130.3-130.3c0-71.9,58.5-130.4,130.3-130.4s130.3,58.5,130.3,130.4
	C272.5,213,214,271.5,142.1,271.5z M142.1,16.8c-68.6,0-124.3,55.8-124.3,124.3s55.8,130.3,124.3,130.3s124.3-61.8,124.3-130.3
	S210.7,16.8,142.1,16.8z" class="st0"></path>
</svg>
