<svg width="180" height="143" viewBox="0 0 180 143" fill="none" xmlns="http://www.w3.org/2000/svg">
<g clip-path="url(#clip0_21_15513)">
<g clip-path="url(#clip1_21_15513)">
<path d="M35.7929 121.801C35.4745 121.801 35.1784 121.891 34.915 122.067C34.6561 122.244 34.421 122.454 34.2154 122.691C34.0234 122.914 33.853 123.154 33.7065 123.409C33.5681 123.649 33.4644 123.821 33.3979 123.938H33.2365L34.0505 121.637H41.0935L40.276 123.938H40.1129C40.151 123.786 40.1802 123.613 40.1944 123.426C40.2104 123.244 40.2237 123.05 40.2237 122.867C40.2237 122.57 40.1368 122.319 39.9799 122.114C39.822 121.903 39.5401 121.801 39.1472 121.801H37.9883L35.1252 129.796H36.457L36.4135 129.963H32.7976L32.8464 129.796H34.0744L36.9358 121.801L35.7929 121.801ZM42.1975 121.241L42.2445 121.073H44.087L42.1372 126.371H42.1647C42.2902 126.197 42.4255 126.031 42.5699 125.872C42.7295 125.699 42.8971 125.536 43.086 125.393C43.265 125.245 43.4623 125.121 43.673 125.024C43.8804 124.923 44.087 124.875 44.2999 124.875C44.627 124.875 44.8851 124.962 45.0757 125.138C45.1669 125.219 45.2396 125.319 45.2889 125.431C45.3382 125.542 45.3628 125.663 45.3612 125.785C45.3612 125.918 45.3408 126.044 45.2992 126.176C45.2557 126.308 45.2043 126.457 45.1396 126.64L44.3797 128.8C44.3344 128.933 44.2892 129.064 44.2502 129.195C44.2126 129.318 44.194 129.446 44.1952 129.574C44.1952 129.662 44.2112 129.754 44.2502 129.83C44.2901 129.901 44.3734 129.945 44.494 129.945C44.6395 129.945 44.7663 129.901 44.8833 129.83C45.003 129.754 45.1085 129.659 45.2034 129.55C45.3018 129.441 45.3869 129.327 45.4561 129.2C45.527 129.082 45.5829 128.984 45.621 128.896L45.7461 128.954C45.6962 129.059 45.6424 129.161 45.5847 129.261C45.5088 129.398 45.4169 129.526 45.3107 129.642C45.1926 129.772 45.0524 129.88 44.8966 129.962C44.7178 130.058 44.5163 130.106 44.3132 130.098C44.0913 130.104 43.8721 130.048 43.6809 129.935C43.508 129.83 43.4211 129.641 43.4211 129.399C43.4211 129.295 43.4371 129.188 43.4646 129.079C43.4885 128.977 43.5267 128.855 43.5612 128.729L44.5428 125.94C44.6067 125.749 44.6377 125.593 44.6377 125.467C44.6381 125.364 44.6041 125.264 44.541 125.182C44.4719 125.087 44.3522 125.033 44.181 125.033C44.0117 125.033 43.8122 125.103 43.5834 125.23C43.3374 125.377 43.1105 125.554 42.9077 125.756C42.4071 126.252 42.0236 126.853 41.7852 127.516L40.9109 129.962H40.1022L43.2544 121.24H42.1975V121.241ZM50.1033 129.115C49.994 129.274 49.8653 129.419 49.7202 129.547C49.5553 129.682 49.3567 129.822 49.1208 129.928C48.8509 130.047 48.5583 130.105 48.2634 130.099C47.9273 130.099 47.6436 130.041 47.4148 129.936C47.1978 129.839 47.0059 129.693 46.8535 129.51C46.7104 129.346 46.6021 129.153 46.5352 128.946C46.4737 128.752 46.4423 128.55 46.4421 128.347C46.4421 127.953 46.5326 127.557 46.7241 127.135C46.9147 126.721 47.1674 126.333 47.4725 125.989C47.781 125.644 48.1286 125.359 48.517 125.132C48.9098 124.906 49.307 124.792 49.7123 124.792C49.8666 124.792 50.0244 124.81 50.1796 124.844C50.3338 124.875 50.4757 124.933 50.5972 125.001C50.7166 125.068 50.8205 125.159 50.9022 125.269C50.9831 125.386 51.025 125.526 51.0219 125.668C51.0219 125.881 50.9634 126.065 50.849 126.223C50.7362 126.391 50.5864 126.531 50.411 126.632C50.2277 126.752 50.0298 126.848 49.8222 126.918C49.6094 126.997 49.3975 127.058 49.1989 127.108C48.9949 127.143 48.8105 127.176 48.6447 127.194C48.5217 127.21 48.398 127.221 48.274 127.226C48.1393 127.226 48.0125 127.217 47.8874 127.212C47.7789 127.206 47.6709 127.194 47.5638 127.176C47.4785 127.419 47.4057 127.666 47.3457 127.916C47.2889 128.164 47.2588 128.422 47.2588 128.697C47.2588 129.115 47.3696 129.431 47.586 129.635C47.8059 129.844 48.0799 129.944 48.4106 129.944C48.6615 129.944 48.8797 129.9 49.0774 129.8C49.2627 129.7 49.4338 129.587 49.5775 129.45C49.7176 129.326 49.8408 129.182 49.9428 129.051C50.0359 128.918 50.1175 128.808 50.1804 128.729L50.3205 128.81C50.243 128.908 50.1705 129.01 50.1033 129.115ZM50.1547 125.127C50.0625 125.011 49.9056 124.955 49.6874 124.955C49.4392 124.956 49.1969 125.03 48.9896 125.166C48.7648 125.31 48.5623 125.486 48.3884 125.688C48.052 126.079 47.7897 126.528 47.6143 127.013C47.7961 127.046 47.9992 127.06 48.2137 127.06C48.4904 127.06 48.7555 127.02 49.0073 126.929C49.2618 126.845 49.4782 126.738 49.6724 126.592C49.863 126.452 50.0137 126.293 50.1246 126.102C50.2357 125.927 50.295 125.724 50.2957 125.517C50.3004 125.374 50.2499 125.234 50.1547 125.127ZM58.2583 129.07C58.2042 129.256 58.1802 129.425 58.1802 129.575C58.1802 129.774 58.2787 129.874 58.4746 129.874C58.6248 129.875 58.7715 129.83 58.894 129.743C59.0235 129.65 59.1299 129.55 59.2159 129.442C59.299 129.335 59.3737 129.221 59.4394 129.103C59.4961 128.988 59.536 128.906 59.5644 128.86L59.7151 128.943C59.6619 129.055 59.6024 129.164 59.5369 129.27C59.4567 129.409 59.3549 129.535 59.2354 129.642C59.1099 129.771 58.9651 129.879 58.8063 129.963C58.6286 130.059 58.4284 130.106 58.2264 130.099C57.7138 130.099 57.4594 129.863 57.4594 129.4C57.4594 129.343 57.4718 129.247 57.4939 129.115C57.5143 128.977 57.5507 128.856 57.5862 128.744H57.564C57.4567 128.874 57.3264 129.024 57.1916 129.182C57.0497 129.344 56.8919 129.493 56.7207 129.624C56.5432 129.764 56.3468 129.878 56.1373 129.963C55.928 130.059 55.6939 130.1 55.4395 130.1C55.2781 130.1 55.114 130.074 54.9686 130.014C54.8156 129.954 54.6773 129.862 54.5634 129.744C54.4375 129.613 54.3432 129.455 54.2876 129.283C54.2168 129.066 54.1835 128.84 54.1892 128.612C54.1892 128.305 54.2495 127.991 54.3745 127.681C54.6394 127.042 55.0399 126.467 55.5485 125.998C55.7964 125.766 56.0627 125.554 56.3448 125.364C56.6134 125.186 56.875 125.048 57.1366 124.945C57.4017 124.844 57.6323 124.793 57.838 124.793C58.0685 124.793 58.2671 124.864 58.4321 124.992C58.5105 125.054 58.5733 125.134 58.6156 125.225C58.658 125.316 58.6786 125.416 58.6759 125.516H58.6981L58.8958 124.946H59.7169L58.4418 128.481C58.3691 128.688 58.3088 128.883 58.2583 129.07ZM58.527 125.945C58.5544 125.845 58.5704 125.749 58.5704 125.668C58.5695 125.592 58.5585 125.516 58.5376 125.443C58.5189 125.359 58.4843 125.28 58.4356 125.209C58.3765 125.139 58.3057 125.079 58.2264 125.033C58.1228 124.977 58.0061 124.95 57.8885 124.955C57.634 124.955 57.3849 125.033 57.1348 125.173C56.8792 125.327 56.6481 125.52 56.4494 125.743C56.2227 125.985 56.0246 126.252 55.8589 126.539C55.6753 126.841 55.5246 127.144 55.3969 127.457C55.2701 127.759 55.1664 128.054 55.0972 128.348C55.0335 128.596 54.9981 128.85 54.9917 129.106C54.9917 129.357 55.0387 129.553 55.1424 129.714C55.2391 129.87 55.3987 129.947 55.6257 129.947C55.8509 129.947 56.0814 129.876 56.3146 129.739C56.5487 129.594 56.7633 129.434 56.9557 129.235C57.1499 129.04 57.321 128.844 57.4594 128.649C57.603 128.459 57.6899 128.306 57.728 128.194L58.3496 126.477C58.44 126.223 58.5012 126.045 58.527 125.945ZM61.9939 125.743C62.0525 125.531 62.1172 125.318 62.1793 125.107H61.1631L61.2083 124.945H63.0074C62.9579 125.152 62.9029 125.359 62.8425 125.564C62.7663 125.809 62.6882 126.048 62.6004 126.292L62.6244 126.311C62.7006 126.199 62.7973 126.049 62.917 125.891C63.0372 125.723 63.1684 125.564 63.3098 125.414C63.4641 125.267 63.6264 125.137 63.8019 125.032C63.9819 124.931 64.1726 124.874 64.3765 124.874C64.6638 124.874 64.8855 124.953 65.0362 125.127C65.1869 125.283 65.2597 125.457 65.249 125.65C65.2518 125.755 65.2305 125.859 65.1869 125.955C65.1491 126.031 65.0923 126.095 65.022 126.143C64.9019 126.218 64.7627 126.256 64.6212 126.254C64.5249 126.257 64.4302 126.227 64.3526 126.17C64.2834 126.12 64.247 126.035 64.247 125.923C64.247 125.844 64.263 125.776 64.3011 125.73C64.3339 125.69 64.3721 125.649 64.412 125.608C64.4529 125.57 64.4895 125.527 64.521 125.481C64.5594 125.429 64.5788 125.365 64.576 125.299C64.577 125.262 64.5688 125.225 64.5523 125.191C64.5358 125.157 64.5114 125.128 64.4811 125.106C64.4131 125.057 64.331 125.031 64.247 125.033C64.0999 125.033 63.9269 125.118 63.731 125.267C63.5142 125.435 63.3199 125.63 63.1529 125.848C62.9604 126.086 62.7822 126.354 62.6111 126.662C62.4457 126.953 62.3043 127.256 62.1881 127.569L61.3466 129.961H60.5309L61.7935 126.354C61.8627 126.159 61.9283 125.945 61.9939 125.743ZM68.0971 123.797L67.6724 124.945H68.9457L68.9004 125.107H67.6289L66.2918 128.824L66.1756 129.183C66.1359 129.306 66.1156 129.435 66.1153 129.564C66.1153 129.682 66.1464 129.774 66.2058 129.841C66.2625 129.91 66.3583 129.945 66.4877 129.945C66.6332 129.945 66.7635 129.901 66.8912 129.822C67.0134 129.731 67.126 129.629 67.2272 129.516C67.331 129.405 67.4126 129.292 67.4835 129.178C67.5509 129.06 67.6067 128.965 67.636 128.896L67.7779 128.954C67.7451 129.014 67.6928 129.115 67.6289 129.242C67.5471 129.378 67.4514 129.506 67.3434 129.623C67.218 129.761 67.0691 129.876 66.9036 129.963C66.7116 130.059 66.4985 130.106 66.2838 130.099C65.9859 130.099 65.766 130.023 65.6205 129.883C65.5472 129.816 65.4888 129.735 65.4494 129.644C65.4099 129.553 65.3903 129.455 65.3918 129.356C65.3918 129.2 65.4246 129.027 65.4822 128.837C65.5425 128.633 65.6002 128.453 65.6604 128.288L66.8087 125.107H65.7571L65.8041 124.945H66.8575L67.2733 123.797H68.0971ZM71.7822 126.809C71.9799 126.403 72.2273 126.045 72.5253 125.751C72.817 125.463 73.1555 125.226 73.5264 125.051C73.8517 124.887 74.21 124.798 74.5744 124.792C74.8848 124.792 75.1472 124.855 75.3742 124.98C75.5995 125.103 75.7919 125.267 75.9337 125.455C76.0809 125.656 76.1971 125.867 76.2609 126.1C76.3283 126.332 76.3682 126.562 76.3682 126.779C76.3682 127.232 76.2698 127.657 76.0756 128.062C75.8863 128.449 75.638 128.805 75.3397 129.116C75.0546 129.413 74.7185 129.657 74.3474 129.836C73.9928 130.013 73.6443 130.099 73.3189 130.099C73.0369 130.099 72.7868 130.041 72.5634 129.936C72.3439 129.832 72.1483 129.684 71.9888 129.502C71.8273 129.318 71.7027 129.105 71.6217 128.875C71.5355 128.633 71.4932 128.377 71.4967 128.12C71.4967 127.655 71.5916 127.216 71.7822 126.809ZM72.551 129.663C72.7398 129.85 72.9837 129.945 73.2781 129.945C73.5255 129.945 73.7489 129.874 73.9591 129.737C74.1797 129.585 74.3733 129.397 74.5319 129.181C74.7093 128.943 74.8609 128.687 74.9841 128.416C75.2322 127.895 75.4142 127.345 75.5259 126.778C75.5711 126.531 75.5986 126.33 75.5986 126.17C75.5986 125.798 75.5135 125.5 75.3565 125.283C75.1969 125.064 74.9149 124.953 74.5221 124.953C74.2916 124.953 74.0823 125.023 73.8757 125.15C73.6653 125.297 73.4779 125.474 73.3198 125.675C73.1471 125.906 72.9958 126.151 72.8675 126.409C72.7404 126.68 72.63 126.958 72.5368 127.243C72.4502 127.514 72.3824 127.79 72.3337 128.069C72.2902 128.303 72.2665 128.54 72.2628 128.778C72.2637 129.178 72.3603 129.472 72.551 129.663ZM79.0665 124.303C79.1933 123.851 79.3662 123.425 79.5896 123.04C79.8202 122.653 80.0711 122.309 80.3655 122.02C80.6347 121.737 80.9513 121.503 81.3009 121.329C81.6122 121.167 81.9567 121.08 82.3073 121.074C82.5086 121.074 82.6744 121.111 82.8163 121.166C82.96 121.223 83.0726 121.298 83.1674 121.391C83.2547 121.471 83.3242 121.568 83.3714 121.676C83.4123 121.771 83.4335 121.873 83.4334 121.976C83.4307 122.117 83.3926 122.255 83.3226 122.378C83.2499 122.51 83.1133 122.575 82.9085 122.575C82.7374 122.575 82.6159 122.541 82.5432 122.472C82.5083 122.445 82.48 122.411 82.4605 122.371C82.441 122.332 82.4308 122.289 82.4306 122.245C82.4306 122.169 82.4492 122.105 82.4811 122.042C82.5086 121.983 82.5432 121.927 82.576 121.877C82.6106 121.823 82.6434 121.782 82.6709 121.729C82.6984 121.679 82.7122 121.623 82.7108 121.566C82.7108 121.435 82.6638 121.347 82.576 121.306C82.4791 121.26 82.3727 121.238 82.2657 121.242C81.9172 121.242 81.6095 121.351 81.3462 121.566C81.0781 121.788 80.8487 122.053 80.6669 122.35C80.4833 122.644 80.3312 122.955 80.213 123.28C80.0932 123.597 80.0099 123.852 79.9514 124.056L79.7093 124.946H81.1467L81.0997 125.108H79.6605L78.6213 129.071C78.4896 129.566 78.3206 130.05 78.1159 130.519C77.9331 130.958 77.7008 131.374 77.4234 131.759C77.1884 132.09 76.9005 132.379 76.5713 132.616C76.2645 132.829 75.9408 132.938 75.5977 132.938C75.4922 132.938 75.3867 132.924 75.2705 132.905C75.162 132.88 75.0579 132.839 74.9619 132.783C74.8689 132.722 74.7903 132.642 74.7314 132.547C74.6613 132.433 74.6271 132.3 74.6329 132.166C74.6329 132.021 74.6799 131.889 74.7695 131.783C74.8617 131.674 74.9965 131.615 75.1854 131.615C75.2838 131.615 75.3689 131.634 75.4328 131.674C75.4913 131.711 75.525 131.792 75.525 131.916C75.525 132.005 75.5046 132.092 75.4647 132.179C75.4274 132.275 75.4088 132.377 75.4097 132.48C75.4097 132.583 75.4425 132.66 75.5046 132.704C75.5737 132.745 75.6553 132.773 75.7591 132.773C76.0845 132.773 76.4019 132.546 76.6981 132.1C76.9996 131.651 77.2851 130.934 77.5591 129.934L78.8439 125.104H77.7337L77.7807 124.942H78.8909L79.0665 124.303ZM84.877 128.905C84.8353 129.024 84.7919 129.145 84.7591 129.261C84.7214 129.372 84.7017 129.488 84.7005 129.605C84.7005 129.7 84.7263 129.779 84.7803 129.85C84.8123 129.882 84.8507 129.907 84.893 129.924C84.9354 129.94 84.9807 129.947 85.026 129.945C85.1573 129.941 85.2846 129.898 85.3913 129.822C85.5199 129.729 85.6289 129.628 85.7273 129.516C85.8275 129.405 85.9109 129.292 85.98 129.178C86.0545 129.06 86.1051 128.965 86.1361 128.896L86.2762 128.954C86.2452 129.014 86.1982 129.115 86.1308 129.242C86.0599 129.373 85.973 129.495 85.855 129.623C85.7304 129.76 85.5835 129.875 85.4205 129.963C85.2338 130.059 85.0257 130.105 84.8158 130.099C84.5596 130.099 84.3521 130.043 84.2058 129.94C84.0479 129.836 83.9752 129.659 83.9752 129.411C83.9752 129.279 83.9956 129.13 84.0426 128.97C84.0914 128.811 84.1357 128.665 84.1845 128.534L86.7878 121.241H85.7486L85.7992 121.073H87.6506L84.877 128.905ZM89.4763 124.946L88.1356 128.802C88.0777 128.945 88.0308 129.093 87.9955 129.243C87.9645 129.375 87.9467 129.465 87.9467 129.53C87.9467 129.638 87.976 129.73 88.0336 129.823C88.0939 129.902 88.1933 129.947 88.3316 129.947C88.5391 129.947 88.7696 129.865 89.017 129.711C89.2608 129.551 89.5038 129.344 89.7361 129.093C89.9702 128.844 90.1812 128.566 90.3772 128.259C90.5732 127.95 90.7257 127.649 90.8312 127.343L91.6629 124.947H92.484L91.1016 128.907C91.0635 129.025 91.0271 129.147 90.9872 129.263C90.9496 129.374 90.9298 129.49 90.9287 129.607C90.9287 129.702 90.9527 129.781 91.0085 129.852C91.0398 129.884 91.0776 129.909 91.1193 129.925C91.161 129.942 91.2058 129.949 91.2506 129.947C91.3871 129.947 91.5122 129.902 91.6354 129.823C91.8623 129.642 92.0576 129.425 92.2135 129.18C92.2792 129.062 92.3333 128.967 92.3661 128.898L92.5044 128.956C92.4751 129.016 92.4246 129.117 92.3572 129.243C92.1972 129.548 91.9508 129.799 91.6487 129.964C91.463 130.06 91.2562 130.107 91.0475 130.101C90.7842 130.101 90.5802 130.045 90.4295 129.942C90.2788 129.838 90.2025 129.661 90.2025 129.413C90.2025 129.281 90.2203 129.149 90.2513 129.029C90.2841 128.913 90.3293 128.771 90.3878 128.616L90.3657 128.591C90.2584 128.732 90.1254 128.891 89.9729 129.067C89.8237 129.242 89.6609 129.405 89.4861 129.554C89.3156 129.707 89.1264 129.837 88.923 129.942C88.7346 130.044 88.5244 130.098 88.3103 130.101C87.976 130.101 87.7144 130.021 87.5158 129.865C87.3216 129.711 87.225 129.485 87.225 129.184C87.225 129.071 87.2471 128.933 87.3048 128.773C87.3597 128.615 87.405 128.471 87.4466 128.348L88.5896 125.108H87.5522L87.5992 124.946H89.4763ZM93.9719 125.836C94.1746 125.478 94.4678 125.179 94.8222 124.97C95.02 124.85 95.2452 124.793 95.4961 124.793C95.6956 124.793 95.865 124.829 96.0033 124.903C96.1399 124.975 96.2489 125.065 96.3358 125.173C96.4263 125.283 96.4883 125.388 96.5282 125.496C96.5734 125.61 96.608 125.713 96.6284 125.8C96.6852 125.727 96.7632 125.632 96.8687 125.516C97.1083 125.255 97.4014 125.049 97.7279 124.911C97.9026 124.833 98.0933 124.793 98.2857 124.793C98.6368 124.793 98.8904 124.888 99.0509 125.08C99.214 125.269 99.2912 125.483 99.2912 125.715C99.2915 125.874 99.2419 126.029 99.1493 126.159C99.0606 126.295 98.9037 126.355 98.6749 126.355C98.5847 126.357 98.4954 126.336 98.4151 126.295C98.3477 126.254 98.3078 126.178 98.3078 126.065C98.3078 125.982 98.3265 125.909 98.3628 125.85C98.3956 125.788 98.432 125.737 98.4736 125.688C98.517 125.637 98.5542 125.582 98.5845 125.523C98.621 125.455 98.6391 125.378 98.6368 125.301C98.6368 125.166 98.5916 125.087 98.5073 125.033C98.4242 124.983 98.3289 124.956 98.2316 124.955C98.0241 124.955 97.8334 125.049 97.6499 125.21C97.4536 125.406 97.2811 125.625 97.1356 125.862C96.9742 126.122 96.8341 126.416 96.7065 126.738C96.5734 127.063 96.467 127.379 96.3739 127.682C96.2868 127.954 96.2145 128.231 96.1576 128.511C96.1146 128.692 96.0885 128.876 96.0796 129.062C96.0796 129.329 96.1319 129.538 96.2338 129.703C96.334 129.866 96.4883 129.947 96.6976 129.947C96.8918 129.947 97.0665 129.902 97.2296 129.803C97.3877 129.708 97.5309 129.59 97.6543 129.453C97.7792 129.329 97.8874 129.189 97.9762 129.038C98.0693 128.889 98.1394 128.762 98.1979 128.673L98.3486 128.746C98.3069 128.813 98.2413 128.928 98.1527 129.077C98.0522 129.24 97.9361 129.393 97.806 129.534C97.6563 129.69 97.4848 129.824 97.297 129.931C97.0931 130.046 96.8625 130.105 96.6284 130.102C96.4614 130.106 96.2958 130.07 96.1452 129.998C96.0227 129.931 95.9126 129.844 95.8198 129.74C95.7387 129.643 95.6721 129.534 95.622 129.417C95.5804 129.32 95.5451 129.22 95.5165 129.118C95.4092 129.236 95.2913 129.357 95.1822 129.47C95.0617 129.587 94.9315 129.693 94.793 129.788C94.6564 129.877 94.5039 129.955 94.3372 130.015C94.1776 130.075 93.9869 130.101 93.7759 130.101C93.6091 130.107 93.4427 130.081 93.2856 130.025C93.1647 129.98 93.054 129.912 92.9601 129.823C92.877 129.748 92.8134 129.654 92.7748 129.549C92.7345 129.449 92.714 129.343 92.7145 129.235C92.7145 129.003 92.7748 128.839 92.8999 128.73C93.0174 128.624 93.171 128.568 93.329 128.572C93.4177 128.572 93.4966 128.591 93.5693 128.64C93.6332 128.685 93.6677 128.762 93.6677 128.875C93.6692 128.942 93.6536 129.008 93.6225 129.067C93.5902 129.118 93.5537 129.167 93.5134 129.212C93.4651 129.259 93.4268 129.314 93.4008 129.376C93.3678 129.448 93.3535 129.528 93.3592 129.608C93.3592 129.739 93.3991 129.833 93.4904 129.877C93.5773 129.925 93.7085 129.948 93.8797 129.948C93.9745 129.948 94.0721 129.931 94.1811 129.9C94.2937 129.861 94.4081 129.79 94.5323 129.684C94.6502 129.584 94.7726 129.435 94.9011 129.236C95.0591 128.988 95.1953 128.727 95.3081 128.455C95.3737 128.29 95.4535 128.087 95.5387 127.85C95.6238 127.605 95.7063 127.356 95.7843 127.111C95.8605 126.851 95.9226 126.602 95.9785 126.366C96.0272 126.126 96.053 125.93 96.053 125.779C96.053 125.549 96.006 125.358 95.9058 125.203C95.8091 125.036 95.6424 124.956 95.4137 124.956C95.2279 124.957 95.046 125.01 94.8887 125.109C94.7297 125.209 94.5853 125.331 94.4596 125.471C94.3379 125.601 94.2306 125.744 94.1395 125.898C94.0526 126.042 93.9887 126.16 93.9488 126.241L93.7821 126.174C93.8202 126.101 93.8788 125.99 93.9719 125.836ZM102.037 124.946L100.702 128.802C100.642 128.945 100.593 129.093 100.557 129.243C100.527 129.375 100.511 129.465 100.511 129.53C100.511 129.638 100.535 129.73 100.595 129.823C100.655 129.902 100.751 129.947 100.894 129.947C101.1 129.947 101.334 129.865 101.578 129.711C101.84 129.533 102.082 129.325 102.297 129.093C102.529 128.844 102.746 128.566 102.94 128.259C103.134 127.95 103.281 127.649 103.397 127.343L104.224 124.947H105.045L103.668 128.907C103.628 129.025 103.586 129.147 103.55 129.263C103.511 129.374 103.491 129.49 103.49 129.607C103.489 129.695 103.518 129.781 103.571 129.852C103.603 129.884 103.642 129.909 103.685 129.926C103.727 129.942 103.773 129.949 103.819 129.947C103.948 129.947 104.075 129.902 104.198 129.823C104.316 129.732 104.425 129.63 104.524 129.517C104.618 129.407 104.705 129.294 104.776 129.18C104.844 129.062 104.9 128.967 104.925 128.898L105.064 128.956C105.04 129.016 104.986 129.117 104.922 129.243C104.848 129.383 104.755 129.511 104.645 129.625C104.521 129.761 104.375 129.876 104.214 129.964C104.026 130.061 103.817 130.108 103.606 130.101C103.351 130.101 103.144 130.045 102.993 129.942C102.839 129.838 102.764 129.661 102.764 129.413C102.764 129.281 102.78 129.149 102.815 129.029C102.842 128.913 102.889 128.771 102.953 128.616L102.933 128.591C102.822 128.732 102.693 128.891 102.536 129.067C102.387 129.242 102.223 129.405 102.046 129.554C101.87 129.712 101.69 129.838 101.485 129.942C101.297 130.044 101.086 130.099 100.872 130.101C100.538 130.101 100.269 130.021 100.079 129.865C99.8826 129.711 99.786 129.485 99.786 129.184C99.786 129.071 99.8134 128.933 99.8658 128.773C99.9225 128.615 99.9695 128.471 100.006 128.348L101.156 125.108H100.11L100.16 124.946H102.037ZM107.205 125.743L107.389 125.107H106.373L106.42 124.945H108.223C108.183 125.107 108.123 125.318 108.054 125.564C107.977 125.809 107.896 126.048 107.813 126.292L107.831 126.311C107.916 126.199 108.013 126.049 108.129 125.891C108.25 125.726 108.38 125.569 108.522 125.414C108.674 125.267 108.838 125.137 109.02 125.032C109.198 124.931 109.385 124.874 109.59 124.874C109.876 124.874 110.096 124.953 110.248 125.127C110.401 125.283 110.477 125.457 110.464 125.65C110.464 125.773 110.447 125.871 110.401 125.955C110.364 126.031 110.308 126.096 110.237 126.143C110.114 126.217 109.972 126.256 109.828 126.254C109.734 126.255 109.642 126.226 109.566 126.17C109.501 126.12 109.463 126.035 109.463 125.923C109.463 125.844 109.48 125.776 109.51 125.73C109.549 125.69 109.586 125.649 109.627 125.608C109.662 125.576 109.698 125.53 109.735 125.481C109.774 125.429 109.793 125.365 109.79 125.299C109.791 125.262 109.783 125.225 109.766 125.191C109.749 125.157 109.725 125.128 109.695 125.106C109.627 125.057 109.546 125.032 109.463 125.033C109.312 125.033 109.141 125.118 108.946 125.267C108.73 125.436 108.535 125.632 108.365 125.848C108.179 126.086 107.996 126.354 107.828 126.662C107.662 126.952 107.521 127.256 107.405 127.569L106.56 129.961H105.746L107.005 126.354C107.076 126.159 107.145 125.945 107.205 125.743ZM110.582 125.847C110.631 125.67 110.699 125.509 110.786 125.356C110.875 125.201 110.989 125.065 111.124 124.955C111.275 124.843 111.458 124.786 111.646 124.793C111.891 124.793 112.105 124.856 112.269 124.984C112.438 125.119 112.569 125.275 112.667 125.469C112.765 125.665 112.835 125.878 112.882 126.101C112.922 126.332 112.94 126.539 112.94 126.737C112.94 127.25 112.909 127.694 112.857 128.062C112.797 128.431 112.737 128.745 112.687 128.988H112.71L114.497 125.765C114.559 125.651 114.622 125.531 114.693 125.414C114.754 125.301 114.83 125.198 114.918 125.105C115.002 125.012 115.098 124.938 115.216 124.876C115.327 124.825 115.46 124.794 115.606 124.794C115.794 124.794 115.922 124.839 115.997 124.935C116.07 125.022 116.11 125.134 116.109 125.248C116.112 125.315 116.101 125.381 116.076 125.444C116.052 125.506 116.016 125.563 115.969 125.611C115.872 125.707 115.749 125.753 115.597 125.753C115.444 125.753 115.373 125.68 115.373 125.541C115.373 125.456 115.394 125.394 115.434 125.348C115.455 125.327 115.473 125.302 115.484 125.274C115.495 125.246 115.5 125.215 115.499 125.185C115.499 125.064 115.444 125.013 115.336 125.025C115.243 125.034 115.142 125.106 115.033 125.233C114.875 125.437 114.734 125.654 114.612 125.882L112.482 129.739L111.808 130.996C111.675 131.251 111.531 131.49 111.396 131.724C111.247 131.963 111.096 132.16 110.93 132.35C110.777 132.513 110.605 132.656 110.417 132.777C110.25 132.882 110.056 132.939 109.858 132.94C109.557 132.94 109.322 132.867 109.134 132.723C108.956 132.581 108.864 132.386 108.864 132.131C108.864 131.932 108.919 131.792 109.039 131.732C109.151 131.665 109.28 131.629 109.411 131.63C109.5 131.625 109.588 131.653 109.658 131.708C109.719 131.755 109.747 131.832 109.747 131.92C109.752 131.972 109.746 132.026 109.731 132.076C109.719 132.119 109.711 132.15 109.691 132.183C109.677 132.223 109.664 132.259 109.65 132.304C109.638 132.364 109.633 132.424 109.634 132.484C109.634 132.572 109.672 132.644 109.744 132.696C109.819 132.749 109.912 132.777 110.028 132.777C110.245 132.777 110.475 132.635 110.712 132.358C110.95 132.076 111.169 131.708 111.37 131.251C111.585 130.746 111.749 130.221 111.858 129.683C111.982 129.093 112.054 128.495 112.054 127.877C112.054 127.269 112.037 126.78 112.002 126.396C111.983 126.094 111.943 125.794 111.882 125.497C111.832 125.284 111.773 125.144 111.713 125.066C111.653 124.994 111.583 124.955 111.513 124.955C111.445 124.955 111.377 124.97 111.314 124.999C111.251 125.027 111.195 125.069 111.15 125.12C111.043 125.23 110.956 125.358 110.894 125.498C110.825 125.642 110.769 125.793 110.727 125.947C110.68 126.106 110.645 126.241 110.627 126.335L110.46 126.294C110.494 126.167 110.535 126.014 110.582 125.847ZM121.523 123.797L121.1 124.945H122.375L122.326 125.107H121.053L119.723 128.824C119.681 128.942 119.643 129.06 119.608 129.183C119.568 129.312 119.546 129.432 119.546 129.564C119.546 129.682 119.577 129.774 119.635 129.841C119.691 129.91 119.784 129.945 119.918 129.945C120.059 129.945 120.191 129.901 120.317 129.822C120.442 129.729 120.554 129.628 120.651 129.516C120.75 129.414 120.837 129.3 120.909 129.178C120.987 129.06 121.036 128.965 121.067 128.896L121.203 128.954C121.178 129.014 121.123 129.115 121.053 129.242C120.977 129.38 120.884 129.508 120.776 129.623C120.647 129.757 120.5 129.871 120.338 129.963C120.142 130.058 119.927 130.105 119.709 130.099C119.415 130.099 119.191 130.023 119.041 129.883C118.97 129.815 118.913 129.733 118.875 129.642C118.836 129.552 118.817 129.454 118.817 129.356C118.817 129.2 118.85 129.027 118.906 128.837C118.962 128.652 119.025 128.469 119.093 128.288L120.234 125.107H119.186L119.23 124.945H120.286L120.703 123.797H121.523ZM123.637 125.743C123.696 125.531 123.762 125.318 123.826 125.107H122.805L122.853 124.945H124.654C124.614 125.107 124.556 125.318 124.487 125.564C124.409 125.809 124.332 126.048 124.247 126.292L124.27 126.311C124.346 126.199 124.442 126.049 124.564 125.891C124.677 125.726 124.806 125.569 124.955 125.414C125.104 125.267 125.271 125.137 125.447 125.032C125.629 124.931 125.819 124.874 126.02 124.874C126.309 124.874 126.529 124.953 126.678 125.127C126.749 125.193 126.806 125.274 126.843 125.364C126.88 125.455 126.897 125.552 126.892 125.65C126.892 125.773 126.878 125.871 126.834 125.955C126.795 126.03 126.739 126.095 126.669 126.143C126.548 126.218 126.409 126.256 126.267 126.254C126.17 126.256 126.076 126.226 125.997 126.17C125.929 126.12 125.89 126.035 125.89 125.923C125.89 125.844 125.908 125.776 125.944 125.73L126.054 125.608C126.094 125.576 126.127 125.53 126.163 125.481C126.202 125.428 126.222 125.365 126.22 125.299C126.222 125.262 126.214 125.224 126.198 125.191C126.181 125.157 126.156 125.128 126.125 125.106C126.057 125.057 125.974 125.032 125.89 125.033C125.744 125.033 125.571 125.118 125.379 125.267C125.161 125.434 124.967 125.63 124.801 125.848C124.389 126.367 124.063 126.948 123.834 127.569L122.994 129.961H122.172L123.438 126.354C123.511 126.159 123.576 125.945 123.637 125.743ZM130.935 129.07C130.881 129.256 130.859 129.425 130.859 129.575C130.859 129.774 130.953 129.874 131.151 129.874C131.307 129.874 131.444 129.83 131.574 129.743C131.699 129.65 131.803 129.55 131.896 129.442C131.985 129.328 132.057 129.212 132.112 129.103C132.174 128.988 132.214 128.906 132.242 128.86L132.391 128.943C132.354 129.028 132.291 129.137 132.214 129.27C132.132 129.408 132.03 129.534 131.911 129.642C131.784 129.772 131.636 129.88 131.475 129.963C131.308 130.058 131.12 130.099 130.906 130.099C130.39 130.099 130.134 129.863 130.134 129.4C130.134 129.343 130.148 129.247 130.165 129.115C130.191 128.977 130.22 128.856 130.262 128.744H130.24C130.127 128.874 130.002 129.024 129.864 129.182C129.725 129.344 129.566 129.493 129.391 129.624C129.215 129.765 129.019 129.879 128.809 129.963C128.59 130.059 128.353 130.106 128.113 130.1C127.947 130.1 127.788 130.074 127.637 130.014C127.487 129.952 127.351 129.86 127.237 129.744C127.113 129.611 127.019 129.454 126.961 129.283C126.891 129.066 126.859 128.839 126.866 128.612C126.866 128.305 126.926 127.991 127.046 127.681C127.171 127.367 127.331 127.071 127.531 126.79C127.734 126.503 127.965 126.239 128.225 125.998C128.485 125.754 128.75 125.544 129.02 125.364C129.286 125.186 129.555 125.048 129.813 124.945C130.073 124.844 130.303 124.793 130.513 124.793C130.745 124.793 130.938 124.864 131.109 124.992C131.186 125.055 131.248 125.135 131.29 125.226C131.332 125.317 131.353 125.416 131.351 125.516H131.371L131.574 124.946H132.392L131.117 128.481C131.048 128.675 130.987 128.871 130.935 129.07ZM131.204 125.945C131.231 125.845 131.245 125.749 131.245 125.668C131.245 125.601 131.236 125.523 131.221 125.443C131.197 125.36 131.16 125.281 131.112 125.209C131.053 125.141 130.984 125.082 130.908 125.033C130.804 124.979 130.688 124.952 130.57 124.955C130.303 124.959 130.042 125.034 129.813 125.173C129.556 125.328 129.322 125.52 129.121 125.743C128.908 125.976 128.719 126.239 128.534 126.539C128.354 126.841 128.201 127.144 128.072 127.457C127.948 127.745 127.848 128.043 127.774 128.348C127.71 128.596 127.675 128.85 127.67 129.106C127.67 129.357 127.719 129.553 127.815 129.714C127.912 129.87 128.072 129.947 128.299 129.947C128.527 129.947 128.756 129.876 128.989 129.739C129.224 129.594 129.44 129.434 129.637 129.235C129.816 129.052 129.983 128.856 130.135 128.649C130.272 128.459 130.364 128.306 130.407 128.194L131.023 126.477C131.117 126.223 131.175 126.045 131.204 125.945ZM134.234 129.492C134.234 129.357 134.222 129.243 134.189 129.145C134.156 129.042 134.122 128.939 134.085 128.837L133.84 128.162C133.768 127.982 133.705 127.799 133.651 127.613C133.593 127.438 133.562 127.255 133.559 127.071C133.559 126.718 133.687 126.355 133.94 125.99C134.221 125.594 134.551 125.236 134.923 124.923L135.167 124.712L135.276 124.829C135.203 124.91 135.127 124.989 135.049 125.065C134.936 125.187 134.829 125.314 134.729 125.447C134.622 125.604 134.53 125.771 134.453 125.945C134.368 126.123 134.325 126.326 134.325 126.532C134.325 126.829 134.366 127.108 134.434 127.353C134.512 127.602 134.603 127.858 134.714 128.13C134.781 128.32 134.839 128.496 134.883 128.646C134.923 128.793 134.952 128.94 134.956 129.069C135.129 128.924 135.334 128.76 135.579 128.57C135.819 128.371 136.048 128.165 136.268 127.935C136.485 127.713 136.674 127.467 136.824 127.203C136.973 126.943 137.048 126.684 137.048 126.413C137.048 126.238 137.03 126.086 136.994 125.981C136.956 125.877 136.912 125.776 136.862 125.677C136.811 125.6 136.765 125.52 136.724 125.437C136.684 125.352 136.664 125.259 136.666 125.166C136.666 125.033 136.718 124.937 136.825 124.875C136.942 124.82 137.07 124.792 137.199 124.793C137.586 124.793 137.776 125.077 137.776 125.651C137.775 125.908 137.728 126.164 137.636 126.404C137.544 126.649 137.421 126.88 137.27 127.093C137.119 127.317 136.95 127.528 136.765 127.725C136.585 127.912 136.396 128.091 136.2 128.261L135.606 128.778C135.456 128.912 135.298 129.037 135.133 129.152C135.003 129.24 134.882 129.34 134.772 129.451C134.648 129.581 134.537 129.699 134.453 129.805C134.361 129.916 134.294 130.012 134.249 130.099L134.093 130.015C134.189 129.901 134.234 129.724 134.234 129.492ZM142.019 129.115C141.909 129.275 141.779 129.42 141.632 129.547C141.469 129.682 141.27 129.822 141.029 129.928C140.79 130.04 140.511 130.099 140.172 130.099C139.834 130.099 139.555 130.041 139.323 129.936C139.107 129.836 138.915 129.691 138.76 129.51C138.62 129.345 138.514 129.153 138.448 128.946C138.38 128.753 138.346 128.551 138.346 128.347C138.346 127.953 138.443 127.557 138.633 127.135C138.825 126.718 139.079 126.331 139.385 125.989C139.69 125.644 140.041 125.359 140.43 125.132C140.789 124.914 141.2 124.797 141.62 124.792C141.779 124.792 141.936 124.81 142.089 124.844C142.246 124.875 142.385 124.933 142.508 125.001C142.631 125.07 142.735 125.166 142.813 125.269C142.895 125.386 142.938 125.526 142.936 125.668C142.936 125.881 142.876 126.065 142.758 126.223C142.646 126.391 142.497 126.531 142.322 126.632C142.139 126.753 141.941 126.849 141.733 126.918C141.528 126.993 141.319 127.056 141.106 127.108C140.905 127.143 140.717 127.176 140.556 127.194C140.433 127.211 140.309 127.221 140.185 127.226C140.052 127.226 139.925 127.217 139.798 127.212C139.687 127.206 139.577 127.194 139.468 127.176C139.386 127.419 139.318 127.666 139.262 127.916C139.196 128.171 139.165 128.434 139.167 128.697C139.167 129.115 139.281 129.431 139.498 129.635C139.714 129.844 139.993 129.944 140.324 129.944C140.577 129.944 140.791 129.9 140.984 129.8C141.167 129.708 141.336 129.59 141.486 129.45C141.633 129.326 141.756 129.182 141.847 129.051C141.951 128.918 142.029 128.808 142.09 128.729L142.226 128.81C142.184 128.87 142.113 128.965 142.019 129.115ZM142.066 125.127C141.972 125.011 141.818 124.955 141.596 124.955C141.357 124.955 141.126 125.025 140.906 125.166C140.68 125.309 140.478 125.485 140.305 125.688C140.125 125.894 139.967 126.117 139.832 126.355C139.716 126.566 139.615 126.786 139.53 127.013C139.709 127.046 139.908 127.06 140.125 127.06C140.407 127.06 140.672 127.02 140.921 126.929C141.158 126.854 141.381 126.74 141.581 126.592C141.773 126.452 141.925 126.293 142.036 126.102C142.147 125.927 142.207 125.724 142.207 125.517C142.212 125.373 142.161 125.234 142.066 125.127ZM144.367 128.905C144.327 129.024 144.287 129.145 144.252 129.261C144.214 129.372 144.194 129.488 144.192 129.605C144.192 129.694 144.222 129.78 144.277 129.85C144.328 129.91 144.412 129.945 144.524 129.945C144.641 129.945 144.766 129.901 144.888 129.822C145.011 129.729 145.12 129.628 145.219 129.516C145.322 129.405 145.406 129.292 145.48 129.178C145.546 129.06 145.602 128.965 145.633 128.896L145.769 128.954C145.738 129.014 145.691 129.115 145.622 129.242C145.56 129.373 145.468 129.495 145.353 129.623C145.226 129.758 145.078 129.872 144.915 129.963C144.729 130.058 144.521 130.105 144.311 130.099C144.051 130.099 143.842 130.043 143.696 129.94C143.544 129.836 143.469 129.659 143.469 129.411C143.469 129.279 143.491 129.13 143.538 128.97C143.585 128.811 143.633 128.665 143.677 128.534L146.282 121.241H145.25L145.291 121.073H147.146L144.367 128.905ZM15.5965 85.953C16.36 85.5788 17.0959 84.8677 17.0933 83.5997V83.5811C17.0933 82.9028 16.8538 82.3415 16.4176 81.8973V81.8911C15.8146 81.3076 14.8765 80.9645 13.699 80.9645H9.2832V91.3122H13.8861C15.0131 91.3122 15.9485 91.0489 16.6206 90.5603C17.2786 90.0735 17.6616 89.3535 17.6616 88.4544V88.4251C17.6607 87.057 16.7377 86.3352 15.5965 85.953ZM13.9162 90.1303H10.5671V86.6766H13.7123C14.5901 86.6766 15.2534 86.8362 15.6914 87.1235C16.1294 87.4099 16.3493 87.8222 16.3493 88.3516V88.3879C16.3493 88.9323 16.1152 89.3633 15.7047 89.663C15.2879 89.9645 14.6734 90.1303 13.9162 90.1303ZM10.5671 85.5079V82.1464H13.5961C14.3117 82.1464 14.8641 82.3078 15.2259 82.5862C15.5912 82.8647 15.7783 83.2513 15.7801 83.7327V83.762C15.7783 84.3419 15.5548 84.7684 15.1567 85.0628C14.7586 85.3589 14.1884 85.5079 13.5083 85.5079H10.5671ZM22.5216 86.6925H28.0866V85.4999H22.5216V82.1677H28.7445V80.9654H21.2235V91.314H28.8154V90.117H22.5216V86.6925ZM40.6227 84.0989V84.0723C40.6227 83.2539 40.3266 82.5188 39.814 82.0063C39.1543 81.3537 38.1329 80.9654 36.8613 80.9654H32.4039V91.3131H33.7011V87.3496H36.5031L39.4629 91.3131H41.0669L37.9067 87.1235C39.4735 86.8007 40.6245 85.789 40.6227 84.0989ZM39.3104 84.1442C39.3104 85.4059 38.2712 86.1588 36.7611 86.1667H33.7011V82.1784H36.7789C37.5875 82.1784 38.2251 82.3646 38.6507 82.6953C39.0799 83.0322 39.3104 83.5066 39.3104 84.1149V84.1442ZM53.1083 80.9654H51.4023L45.6521 86.9488V80.9654H44.3601V91.314H45.6521V88.5324L47.7465 86.4123L51.6355 91.314H53.2724L48.6571 85.507L53.1083 80.9654ZM57.5498 86.6925H63.1165V85.4999H57.5498V82.1677H63.7727V80.9654H56.2481V91.314H63.8454V90.117H57.5498V86.6925ZM68.7329 80.9654H67.4374V91.314H74.4716V90.1028H68.7329V80.9654ZM79.172 86.6925H84.736V85.4999H79.172V82.1677H85.3913V80.9654H77.8747V91.314H85.4658V90.117H79.172V86.6925ZM92.914 86.0089L89.5144 80.9654H87.9388L92.2419 87.2281V91.314H93.5622V87.2157L97.8583 80.9654H96.3429L92.914 86.0089ZM105.962 82.1792H109.384V91.314H110.702V82.1792H114.124V80.9654H105.962V82.1792ZM125.776 84.0989V84.0723C125.776 83.2539 125.476 82.5188 124.962 82.0063C124.311 81.3537 123.279 80.9654 122.013 80.9654H117.55V91.3131H118.853V87.3496H121.655L124.613 91.3131H126.213L123.055 87.1235C124.621 86.8007 125.776 85.789 125.776 84.0989ZM124.459 84.1442C124.454 85.4059 123.42 86.1588 121.91 86.1667H118.852V82.1784H121.926C122.74 82.1784 123.37 82.3646 123.801 82.6953C124.229 83.0322 124.459 83.5066 124.459 84.1149V84.1442ZM133.306 80.8935L133.288 80.9414L128.588 91.314H129.93L131.144 88.6202H136.601L137.791 91.314H139.19L134.48 80.8944L133.306 80.8935ZM136.08 87.4383H131.661L133.883 82.4914L136.08 87.4383ZM144.479 89.6408L140.908 80.9654H139.46L139.502 81.0709L143.906 91.3885H145.022L149.47 80.9654H148.071L144.479 89.6408ZM153.411 86.6925H158.975V85.4999H153.411V82.1677H159.629V80.9654H152.114V91.314H159.709V90.117H153.411V86.6925ZM164.59 90.1028V80.9654H163.292V91.314H170.326V90.1028H164.59ZM100.616 33.4728L100.763 33.3186C100.013 32.5665 99.0904 32.0094 98.0755 31.6959C98.3522 31.4902 98.6226 31.2738 98.8691 31.0326C100.12 29.7802 100.823 28.0822 100.823 26.3119V26.3074C100.823 25.4304 100.651 24.5618 100.316 23.7514C99.9805 22.9409 99.489 22.2044 98.8691 21.584C98.2478 20.9637 97.5102 20.472 96.6986 20.1371C95.8871 19.8023 95.0174 19.6307 94.1395 19.6323H83.3678C83.2607 19.6315 83.1544 19.6519 83.0552 19.6924C82.956 19.7329 82.8658 19.7926 82.7898 19.8681C82.7138 19.9436 82.6535 20.0334 82.6124 20.1324C82.5713 20.2313 82.5502 20.3374 82.5503 20.4446V28.1376H82.607C82.6597 28.2977 82.7614 28.4373 82.8978 28.5364C83.0342 28.6356 83.1983 28.6893 83.367 28.69C83.7252 28.69 84.0142 28.4577 84.1268 28.1376H84.1818V21.2621H94.1359C94.7995 21.2611 95.4567 21.3913 96.0698 21.6451C96.6828 21.8989 97.2397 22.2714 97.7084 22.7411C98.1777 23.2088 98.5498 23.7646 98.8033 24.3767C99.0568 24.9888 99.1868 25.6449 99.1857 26.3074C99.1866 26.9706 99.0566 27.6273 98.8031 28.2401C98.5496 28.8529 98.1776 29.4095 97.7084 29.8782C97.2404 30.3486 96.6836 30.7215 96.0703 30.975C95.457 31.2286 94.7995 31.3579 94.1359 31.3554H72.9305L72.9101 31.3394L72.8197 31.3554H72.5395V31.4352C72.3944 31.4965 72.2704 31.5988 72.1827 31.7295C72.095 31.8602 72.0473 32.0137 72.0456 32.1712C72.0456 32.5063 72.2513 32.783 72.5395 32.9036V32.9878H82.5512V53.0139H82.6638C82.8057 53.2666 83.0619 53.4387 83.3687 53.4413C83.6791 53.4413 83.9371 53.2666 84.0754 53.0139H84.1845V32.9887H93.8282L96.1106 32.994C97.4283 33.0095 98.6875 33.5411 99.6175 34.4748C100.086 34.943 100.457 35.499 100.711 36.1109C100.964 36.7229 101.094 37.3788 101.093 38.0411C101.094 38.7042 100.964 39.361 100.71 39.9737C100.457 40.5865 100.085 41.1432 99.616 41.6121C99.1471 42.081 98.5903 42.4528 97.9776 42.7063C97.3648 42.9597 96.7081 43.0898 96.045 43.0891H87.4005V43.1476C87.2381 43.1984 87.0958 43.2994 86.9944 43.4361C86.8929 43.5728 86.8373 43.7382 86.8357 43.9084C86.8362 44.1181 86.9174 44.3196 87.0626 44.4711C87.2077 44.6225 87.4056 44.7122 87.6151 44.7215H87.624L87.6346 44.7251H87.6666L87.6887 44.7215H96.045C96.9216 44.723 97.7898 44.5507 98.5995 44.2147C99.4092 43.8786 100.144 43.3855 100.762 42.7637C101.384 42.1451 101.878 41.4098 102.215 40.6C102.553 39.7903 102.727 38.9219 102.728 38.0447V38.042C102.728 36.2021 101.974 34.5227 100.773 33.3203L100.616 33.4728Z" fill="white"/>
<path d="M117.027 33.6272L117.023 33.6183L103.513 10.2192C103.441 10.094 103.337 9.99021 103.212 9.91853C103.086 9.84685 102.944 9.80984 102.799 9.81132H75.7765C75.6332 9.81101 75.4923 9.84857 75.3682 9.9202C75.2441 9.99183 75.1412 10.095 75.0698 10.2192H75.068L61.5618 33.6236C61.4875 33.7472 61.4483 33.8887 61.4483 34.0329C61.4483 34.177 61.4875 34.3185 61.5618 34.4421L75.068 57.8474H75.0698C75.176 58.0321 75.3499 58.1682 75.5548 58.2269V58.2562H102.8C102.944 58.2562 103.085 58.2187 103.209 58.1473C103.333 58.0759 103.437 57.9731 103.509 57.8492L103.514 57.8474L117.024 34.4421L117.027 34.4394C117.097 34.3155 117.134 34.1755 117.134 34.0332C117.134 33.8908 117.097 33.751 117.027 33.6272ZM115.373 34.0324L102.327 56.6184H76.2508L63.2101 34.0324L76.2508 11.4455H102.327L115.373 34.0324ZM86.2936 98.7624L82.7087 104.976L86.2936 111.185H93.467L97.0537 104.976L93.467 98.7624H86.2936ZM93.138 110.617H86.6226L83.3631 104.976L86.6226 99.3325H93.138L96.3975 104.976L93.138 110.617ZM9 104.69H79.4855V105.258H9V104.69ZM100.514 104.69H170.997V105.258H100.514V104.69Z" fill="white"/>
</g>
</g>
<defs>
<clipPath id="clip0_21_15513">
<rect width="180" height="142.75" fill="white"/>
</clipPath>
<clipPath id="clip1_21_15513">
<rect width="180" height="142.75" fill="white"/>
</clipPath>
</defs>
</svg>
