<svg version="1.1" id="Layer_1" xmlns="http://www.w3.org/2000/svg" xmlns:xlink="http://www.w3.org/1999/xlink" x="0px" y="0px" viewBox="0 0 841.9 369.4" style="enable-background:new 0 0 841.9 369.4;" xml:space="preserve">
<style type="text/css">
	.st0{fill:#282560;}
</style>
<g>
	<polygon class="st0" points="554.4,338.1 529,338.1 529,188.8 554.4,188.8 554.4,278.4 590.5,226.8 619.7,226.8 581.2,279.7 
		627.2,338.1 594.8,338.1 554.4,281.5"></polygon>
	<path class="st0" d="M282.2,280c0,10.4,3.1,18.3,8.6,24.5c5.5,5.5,12.8,8.6,22.6,8.6c9.2,0,16.5-3.1,22.6-9.2
		c5.5-6.1,8-14.1,8-24.5c0-9.2-2.5-16.5-8.6-22.6c-6.1-6.1-13.5-9.2-22-9.2c-9.2,0-16.5,3.1-22.6,9.2
		C285.3,262.9,282.2,270.8,282.2,280 M255.9,280c0-7.3,1.2-14.7,4.3-21.4c3-7.3,6.7-13.5,12.2-19c5.5-5.5,11.6-9.8,18.3-12.2
		c7.3-3.1,14.1-4.9,22-4.9c7.3,0,14.7,1.8,21.4,4.3c6.7,2.4,12.8,6.7,18.3,11.6c6.1,5.5,10.4,11.6,13.5,19c3.1,7.3,4.9,14.7,4.9,22
		c0,8.6-1.8,16.5-4.3,23.2c-2.5,6.7-6.7,12.8-12.2,18.3c-5.5,6.1-11.6,10.4-18.3,12.8c-7.3,3.1-14.7,4.3-23.2,4.3
		c-8,0-15.3-1.2-22-4.3c-6.7-3.1-13.5-7.3-19-12.8c-4.9-6.1-9.2-12.2-11.6-19C257.1,295.3,255.9,287.9,255.9,280"></path>
	<path class="st0" d="M775.7,305.8V188.8h26.1v38h16.8v23h-16.8v55.9c0,6.2,2.5,9.3,9.3,9.3h7.5v23h-9.9
		C791.3,338.1,775.7,328.1,775.7,305.8"></path>
	<path class="st0" d="M212,99.9c-1.8-7.3-5.5-12.8-11-16.5c-4.9-3.7-11.6-5.5-19.6-5.5c-6.7,0-12.8,1.8-17.7,6.1
		c-5.5,4.3-9.2,9.2-11,15.9H212z M151.4,120.1c1.2,8,4.3,14.7,9.8,19c5.5,4.3,12.2,6.7,20.8,6.7c5.5,0,11-1.2,15.3-3.7
		c4.9-2.4,7.9-5.5,11-9.8h27.5c-4.9,11.6-11.6,20.8-20.8,27.5c-9.2,6.7-20.2,9.8-32.4,9.8c-7.9,0-15.3-1.2-22.6-4.3
		c-6.7-2.4-12.8-6.7-18.3-12.8c-4.9-4.9-9.2-11.6-12.2-18.3c-2.4-7.3-4.3-14.1-4.3-22c0-7.3,1.8-14.7,4.3-21.4
		c2.4-6.7,6.7-12.8,11.6-17.7c5.5-6.1,11.6-11,19-14.1c6.7-3.1,14.1-4.9,21.4-4.9c9.8,0,18.3,2.4,26.9,6.7
		c8,4.3,15.3,10.4,20.8,18.3c3.7,4.3,6.1,9.8,8,15.9c1.8,5.5,2.4,12.2,2.4,19.6v3.1v2.4H151.4z"></path>
	<path class="st0" d="M352.4,20.3V64C342,57.8,331.7,54,319.8,54c-32.3,0-57.9,26.1-57.9,57.8c0,31.7,25.3,57.8,57.6,57.8
		c31.7,0,57.6-26.1,57.6-57.8V110V20.3H352.4z M319.7,144.1c-18,0-32.9-14.3-32.9-32.3c0-18,14.9-32.3,32.9-32.3
		c18,0,32.3,14.3,32.3,32.3C352,129.8,337.7,144.1,319.7,144.1"></path>
	<path class="st0" d="M450.2,222.5c27.3,0,49.7,18.6,55.9,43.5h-26.7c-5-10.6-16.2-18-29.2-18c-18,0-32.3,14.3-32.3,32.3
		c0,18,14.3,32.3,32.3,32.3c13,0,24.2-7.5,29.2-18h26.7c-6.2,24.8-28.6,43.5-55.9,43.5c-31.7,0-57.8-26.1-57.8-57.8
		C392.4,248.6,418.5,222.5,450.2,222.5"></path>
	<path class="st0" d="M456.2,144c-18,0-32.9-14.3-32.9-32.3c0-18,14.9-32.3,32.9-32.3c17.4,0,32.3,14.3,32.3,32.3
		C488.5,129.7,473.6,144,456.2,144 M456.2,54c-32.3,0-58.3,26.1-58.3,57.7c0,31.7,26.1,57.7,58.3,57.7c12.1,0,23.4-3.8,32.7-10.3
		l0,0c-0.3,19.5-8.8,30.1-32.7,30.1l0,0c-12.8,0-20.7-4.3-26.1-10.5l-27.4-0.2c8.2,20.1,27.9,34.5,53.5,34.5l0,0
		c41,0,57.7-25.6,57.7-56.1v-45.2v0C514,80,487.9,54,456.2,54"></path>
	<path class="st0" d="M86.1,169.6c-34.8,0-52.8-26.1-52.8-57.2V20.3h25.5v93.3c0,20.5,10.7,32.4,27.3,31.7h23.2v24.2H86.1z"></path>
	<path class="st0" d="M129.3,253.1v-64.3h41.5h21.4c25.4,0,45.6,20.8,45.6,45.6c0,24.4-18.6,44-42.6,45.5l0,0l45.2,58.1h-32.3
		l-41.5-58l0,0h-11.9v0.2v57.8h-25.5V246 M154.7,244.7v11h38c12.1,0,21.9-9.2,21.9-21.4c0-11.5-9.8-21.3-21.9-21.3h-22h-16V244.7z"></path>
</g>
<path class="st0" d="M623.4,99.8c-1.8-7.3-5.5-12.8-11-16.5c-4.9-3.7-11.6-5.5-19.6-5.5c-6.7,0-12.8,1.8-17.7,6.1
	c-5.5,4.3-9.2,9.2-11,15.9H623.4z M562.8,120c1.2,8,4.3,14.7,9.8,19c5.5,4.3,12.2,6.7,20.8,6.7c5.5,0,11-1.2,15.3-3.7
	c4.9-2.4,7.9-5.5,11-9.8h27.5c-4.9,11.6-11.6,20.8-20.8,27.5c-9.2,6.7-20.2,9.8-32.4,9.8c-7.9,0-15.3-1.2-22.6-4.3
	c-6.7-2.4-12.8-6.7-18.3-12.8c-4.9-4.9-9.2-11.6-12.2-18.3c-2.4-7.3-4.3-14.1-4.3-22c0-7.3,1.8-14.7,4.3-21.4
	c2.4-6.7,6.7-12.8,11.6-17.7c5.5-6.1,11.6-11,19-14.1c6.7-3.1,14.1-4.9,21.4-4.9c9.8,0,18.3,2.4,26.9,6.7c8,4.3,15.3,10.4,20.8,18.3
	c3.7,4.3,6.1,9.8,8,15.9c1.8,5.5,2.4,12.2,2.4,19.6v3.1v2.4H562.8z"></path>
<path class="st0" d="M726.2,78.3c-21.7,1.9-27.3,11.2-27.3,31.7v59.7h-25.5v-58.4c0-31.1,18-57.2,52.8-57.2V78.3z"></path>
<path class="st0" d="M726.6,268.4c-1.8-7.3-5.5-12.8-11-16.5c-4.9-3.7-11.6-5.5-19.6-5.5c-6.7,0-12.8,1.8-17.7,6.1
	c-5.5,4.3-9.2,9.2-11,15.9H726.6z M666.1,288.5c1.2,8,4.3,14.7,9.8,19c5.5,4.3,12.2,6.7,20.8,6.7c5.5,0,11-1.2,15.3-3.7
	c4.9-2.4,7.9-5.5,11-9.8h27.5c-4.9,11.6-11.6,20.8-20.8,27.5c-9.2,6.7-20.2,9.8-32.4,9.8c-7.9,0-15.3-1.2-22.6-4.3
	c-6.7-2.4-12.8-6.7-18.3-12.8c-4.9-4.9-9.2-11.6-12.2-18.3c-2.4-7.3-4.3-14.1-4.3-22c0-7.3,1.8-14.7,4.3-21.4
	c2.4-6.7,6.7-12.8,11.6-17.7c5.5-6.1,11.6-11,19-14.1c6.7-3.1,14.1-4.9,21.4-4.9c9.8,0,18.3,2.4,26.9,6.7c8,4.3,15.3,10.4,20.8,18.3
	c3.7,4.3,6.1,9.8,8,15.9c1.8,5.5,2.4,12.2,2.4,19.6v3.1v2.4H666.1z"></path>
</svg>
