<svg xml:space="preserve" style="enable-background:new 0 0 61.5 64.3;" viewBox="0 0 61.5 64.3" y="0px" x="0px" xmlns:xlink="http://www.w3.org/1999/xlink" xmlns="http://www.w3.org/2000/svg" id="Layer_1" version="1.1">
<style type="text/css">
	.st0{fill:#F1E8DA;}
</style>
<g>
	<path d="M3.6,59.8H3v-4.5h1c1,0,1.9,0.2,1.9,1.2c0,0.7-0.5,1-1.2,1.1l1.7,2.2H5.8l-1.7-2.1H3.6V59.8z M4,57.4
		c0.8,0,1.3-0.2,1.3-0.9c0-0.7-0.5-0.9-1.3-0.9H3.6v1.8H4z" class="st0"></path>
</g>
<g>
	<polygon points="7.3,55.3 10.1,55.3 10.1,55.6 7.9,55.6 7.9,57.3 9.8,57.3 9.8,57.6 7.9,57.6 7.9,59.5 10.1,59.5 
		10.1,59.8 7.3,59.8" class="st0"></polygon>
</g>
<g>
	<path d="M12.5,57.8L12,57.6c-0.8-0.3-1.1-0.7-1.1-1.3c0-0.7,0.6-1.1,1.5-1.1c0.5,0,0.9,0.1,1.2,0.3v1h-0.1
		c-0.2-0.7-0.6-1-1.2-1c-0.6,0-0.9,0.3-0.9,0.7c0,0.4,0.2,0.7,0.7,0.9l0.4,0.1c0.7,0.2,1.4,0.6,1.4,1.4c0,0.8-0.6,1.3-1.6,1.3
		c-0.6,0-1-0.1-1.4-0.4l0-1H11c0.2,0.8,0.7,1.1,1.4,1.1c0.7,0,1.1-0.4,1.1-0.9C13.4,58.3,13.2,58,12.5,57.8" class="st0"></path>
</g>
<g>
	<path d="M19.4,57.5c0,1.4-1.1,2.3-2.4,2.3c-1.3,0-2.4-0.9-2.4-2.3s1.1-2.3,2.4-2.3C18.3,55.2,19.4,56.1,19.4,57.5
		 M15.2,57.5c0,1.5,0.9,2.1,1.8,2.1c0.9,0,1.8-0.6,1.8-2.1c0-1.5-0.9-2.1-1.8-2.1C16.1,55.4,15.2,56,15.2,57.5" class="st0"></path>
</g>
<g>
	<polygon points="20.9,59.5 23.1,59.5 23.1,59.8 20.3,59.8 20.3,55.3 20.9,55.3" class="st0"></polygon>
</g>
<g>
	<polygon points="26.5,55.3 26.8,55.3 25,59.8 24.6,59.8 22.8,55.3 23.5,55.3 25,59.2" class="st0"></polygon>
</g>
<g>
	<polygon points="27.6,55.3 30.5,55.3 30.5,55.6 28.2,55.6 28.2,57.3 30.2,57.3 30.2,57.6 28.2,57.6 28.2,59.5 
		30.5,59.5 30.5,59.8 27.6,59.8" class="st0"></polygon>
</g>
<g>
	<path d="M36.5,55.7v0.8h-0.1c-0.4-0.9-1-1.1-1.7-1.1c-0.9,0-1.7,0.6-1.7,2.1c0,1.5,0.9,2.1,1.7,2.1
		c0.6,0,1.3-0.1,1.7-1.1h0.1v0.8c-0.5,0.3-1.1,0.4-1.7,0.4c-1.3,0-2.4-0.9-2.4-2.3s1.1-2.3,2.4-2.3C35.4,55.2,36.1,55.4,36.5,55.7" class="st0"></path>
</g>
<g>
	<path d="M39.5,58.2h-1.8l-0.6,1.5h-0.3l1.8-4.5H39l1.8,4.5h-0.6L39.5,58.2z M37.9,57.8h1.5l-0.8-1.9L37.9,57.8z" class="st0"></path>
</g>
<g>
	<path d="M42.2,57.8v2h-0.6v-4.5h1.3c1,0,1.9,0.3,1.9,1.3c0,1-0.9,1.3-1.9,1.3H42.2z M42.8,57.5c0.8,0,1.3-0.3,1.3-1
		c0-0.7-0.5-1-1.3-1h-0.6v2H42.8z" class="st0"></path>
</g>
<g>
	<rect height="4.5" width="0.6" class="st0" y="55.3" x="45.5"></rect>
</g>
<g>
	<polygon points="49,59.8 48.4,59.8 48.4,55.6 46.8,55.6 46.8,55.3 50.6,55.3 50.6,55.6 49,55.6" class="st0"></polygon>
</g>
<g>
	<path d="M53,58.2h-1.8l-0.6,1.5h-0.3l1.8-4.5h0.4l1.8,4.5h-0.6L53,58.2z M51.3,57.8h1.5l-0.8-1.9L51.3,57.8z" class="st0"></path>
</g>
<g>
	<polygon points="55.6,59.5 57.9,59.5 57.9,59.8 55,59.8 55,55.3 55.6,55.3" class="st0"></polygon>
</g>
<path d="M17,40.7c-3-3.7-4.8-8.1-5.2-12.9c-0.1-0.7-0.1-1.4-0.1-2c0-1.7,0.2-3.5,0.6-5.1c0.8-3.6,2.4-6.9,4.7-9.8h5
	c-4.2,3.8-6.7,9.2-6.7,14.9c0,1.9,0.3,3.7,0.8,5.5c1.1,3.7,3.1,6.9,5.9,9.4" class="st0"></path>
<path d="M54.2,18.9C51.3,11.2,44,6,35.8,5.8V2.2c2.1,0,4.1,0.3,6.1,0.9c7.7,2.2,13.8,8.2,16.2,15.8H54.2z" class="st0"></path>
<path d="M35.4,49.5c-1.6,0-3.2-0.2-4.7-0.5l0,0l-10-20.7c0.5,0.1,1.1,0.1,1.6,0.1c0.8,0,1.6-0.1,2.4-0.3
	c5.1-1.1,8.8-5.8,8.8-11c0-0.7-0.1-1.3-0.2-2c-0.3-1.5-0.8-2.9-1.7-4.2c-0.9-1.4-2.2-2.6-3.7-3.5c-1.7-1-3.7-1.6-5.7-1.6H6.6v43.6H3
	V2.2h19.3c2,0,3.9,0.4,5.6,1.1c1.8,0.7,3.4,1.8,4.8,3.1c0.1,0,0.1,0.1,0.1,0.1c1.2,1.2,2.2,2.6,2.9,4.1c0.7,1.4,1.1,2.9,1.3,4.4
	c0.1,0.7,0.1,1.3,0.1,1.9c0,6.7-4.5,12.6-11,14.4l6.9,14.1l0,0.1c0.7,0.1,1.5,0.1,2.3,0.1c8.4,0,15.9-5.2,18.8-13.1H58
	C55,42.6,45.7,49.5,35.4,49.5" class="st0"></path>
</svg>
