<svg xmlns="http://www.w3.org/2000/svg" xmlns:xlink="http://www.w3.org/1999/xlink" width="155.891" height="64.534" viewBox="0 0 155.891 64.534">
  <defs>
    <clipPath id="clip-path">
      <path id="Path_63" data-name="Path 63" d="M0,15.06H155.891V-49.474H0Z" transform="translate(0 49.474)" fill="#fff"/>
    </clipPath>
  </defs>
  <g id="Group_69" data-name="Group 69" transform="translate(0 49.474)">
    <g id="Group_51" data-name="Group 51" transform="translate(0 -49.474)" clip-path="url(#clip-path)">
      <g id="Group_46" data-name="Group 46" transform="translate(64.86 43.547)">
        <path id="Path_58" data-name="Path 58" d="M2.989.668A6.107,6.107,0,0,0-2.447-2.194,7.046,7.046,0,0,0-7.679-.012,7.335,7.335,0,0,0-9.818,5.322,7.381,7.381,0,0,0-7.679,10.67a7.02,7.02,0,0,0,5.232,2.2A6.132,6.132,0,0,0,2.989,9.976v2.053A4.187,4.187,0,0,1,1.7,15.267a5.028,5.028,0,0,1-3.541,1.186q-3.528,0-4.712-2.429l-2.2,1.243a6.074,6.074,0,0,0,2.66,2.617,9.032,9.032,0,0,0,4.192.91,7.951,7.951,0,0,0,5.2-1.778,6.09,6.09,0,0,0,2.168-4.987V-1.818H2.989ZM1.515,8.994a4.987,4.987,0,0,1-3.672,1.474A4.987,4.987,0,0,1-5.829,8.994,4.987,4.987,0,0,1-7.3,5.322,4.948,4.948,0,0,1-5.829,1.68,4.983,4.983,0,0,1-2.157.2,4.983,4.983,0,0,1,1.515,1.68,4.948,4.948,0,0,1,2.989,5.322,4.987,4.987,0,0,1,1.515,8.994" transform="translate(9.818 2.194)" fill="#fff"/>
      </g>
      <g id="Group_47" data-name="Group 47" transform="translate(82.218 43.662)">
        <path id="Path_59" data-name="Path 59" d="M1.639,0A4.533,4.533,0,0,0-2.87,2.688V.26H-5.385V14.714H-2.87V7.053a4.156,4.156,0,0,1,1.329-3.44,4.555,4.555,0,0,1,3.18-.982Z" transform="translate(5.385)" fill="#fff"/>
      </g>
      <g id="Group_48" data-name="Group 48" transform="translate(89.226 43.547)">
        <path id="Path_60" data-name="Path 60" d="M1.774,0A7.362,7.362,0,0,0-3.617,2.2,7.322,7.322,0,0,0-5.829,7.6a7.319,7.319,0,0,0,2.212,5.405,7.357,7.357,0,0,0,5.391,2.2,7.408,7.408,0,0,0,5.405-2.2A7.3,7.3,0,0,0,9.406,7.6,7.3,7.3,0,0,0,7.18,2.2,7.414,7.414,0,0,0,1.774,0M5.418,11.274a4.948,4.948,0,0,1-3.643,1.474,4.908,4.908,0,0,1-3.613-1.474A4.978,4.978,0,0,1-3.314,7.6,4.983,4.983,0,0,1-1.839,3.931,4.913,4.913,0,0,1,1.774,2.457,5.036,5.036,0,0,1,6.892,7.6a4.982,4.982,0,0,1-1.474,3.671" transform="translate(5.829)" fill="#fff"/>
      </g>
      <g id="Group_49" data-name="Group 49" transform="translate(105.829 43.922)">
        <path id="Path_61" data-name="Path 61" d="M2.4,1.788a4.939,4.939,0,0,1-1.157,3.6A4.07,4.07,0,0,1-1.789,6.558,3.526,3.526,0,0,1-4.42,5.589a3.725,3.725,0,0,1-.955-2.731v-8.73H-7.89V3a6.031,6.031,0,0,0,1.533,4.35,5.372,5.372,0,0,0,4.076,1.6A5.136,5.136,0,0,0,2.4,6.5V8.581H4.917V-5.873H2.4Z" transform="translate(7.89 5.873)" fill="#fff"/>
      </g>
      <g id="Group_50" data-name="Group 50" transform="translate(120.751 43.547)">
        <path id="Path_62" data-name="Path 62" d="M1.862,0A6.135,6.135,0,0,0-3.6,2.862V.376H-6.117V20.612H-3.6V12.344a6.132,6.132,0,0,0,5.464,2.862,6.938,6.938,0,0,0,5.175-2.211A7.465,7.465,0,0,0,9.176,7.6,7.465,7.465,0,0,0,7.037,2.212,6.934,6.934,0,0,0,1.862,0M5.187,11.288a4.925,4.925,0,0,1-3.643,1.49,4.955,4.955,0,0,1-3.671-1.49A5.026,5.026,0,0,1-3.6,7.6,5.031,5.031,0,0,1-2.127,3.917,4.954,4.954,0,0,1,1.544,2.429,4.924,4.924,0,0,1,5.187,3.917,5.035,5.035,0,0,1,6.661,7.6a5.03,5.03,0,0,1-1.474,3.685" transform="translate(6.117)" fill="#fff"/>
      </g>
    </g>
    <g id="Group_52" data-name="Group 52" transform="translate(34.546 -49.474)">
      <path id="Path_64" data-name="Path 64" d="M0,0V2.544H5.956V20.235H8.614V2.544H14.6V0Z" fill="#fff"/>
    </g>
    <g id="Group_56" data-name="Group 56" transform="translate(0 -49.474)" clip-path="url(#clip-path)">
      <g id="Group_53" data-name="Group 53" transform="translate(50.764 0.001)">
        <path id="Path_65" data-name="Path 65" d="M1.68,1.261A5.139,5.139,0,0,0-3,3.719V-4.144H-5.518V16.091H-3V8.43a4.939,4.939,0,0,1,1.156-3.6A4.075,4.075,0,0,1,1.188,3.66a3.526,3.526,0,0,1,2.631.969,3.724,3.724,0,0,1,.954,2.731v8.73H7.289V7.217A6.04,6.04,0,0,0,5.756,2.866a5.376,5.376,0,0,0-4.076-1.6" transform="translate(5.518 4.144)" fill="#fff"/>
      </g>
      <g id="Group_54" data-name="Group 54" transform="translate(65.121 5.406)">
        <path id="Path_66" data-name="Path 66" d="M1.808,3.548A7.062,7.062,0,0,0,8.168.282L6.029-.932A4.527,4.527,0,0,1,1.865,1.178,5.531,5.531,0,0,1-1.589.109,4.764,4.764,0,0,1-3.367-2.9H8.746a7.649,7.649,0,0,0,.086-1.127A7.79,7.79,0,0,0,6.823-9.416a6.651,6.651,0,0,0-5.189-2.241A7.289,7.289,0,0,0-3.83-9.489,7.48,7.48,0,0,0-5.939-4.055a7.384,7.384,0,0,0,2.154,5.45A7.562,7.562,0,0,0,1.808,3.548M-1.719-8.146A4.971,4.971,0,0,1,1.634-9.287,4.632,4.632,0,0,1,4.67-8.217,4.822,4.822,0,0,1,6.288-5.1H-3.367a4.952,4.952,0,0,1,1.647-3.05" transform="translate(5.939 11.657)" fill="#fff"/>
      </g>
      <g id="Group_55" data-name="Group 55" transform="translate(0 16.554)">
        <path id="Path_67" data-name="Path 67" d="M3.948,3.278A4.656,4.656,0,0,0,2.923,2.1,11.835,11.835,0,0,0,1.73,1.194,9.165,9.165,0,0,0,.251.472Q-.706.086-1.261-.1T-2.89-.62A12.911,12.911,0,0,1-6.434-2.115a2.139,2.139,0,0,1-.925-1.8,2.071,2.071,0,0,1,.823-1.7,3.551,3.551,0,0,1,2.268-.656,4.7,4.7,0,0,1,4.5,3.025l3.9-2.251A9.384,9.384,0,0,0,.756-9.373a9.075,9.075,0,0,0-5.023-1.394,8.23,8.23,0,0,0-5.46,1.9A6.3,6.3,0,0,0-12-3.779a6.551,6.551,0,0,0,.571,2.824,5.14,5.14,0,0,0,1.664,2A11.478,11.478,0,0,0-7.577,2.3a24.272,24.272,0,0,0,2.671.94A17.015,17.015,0,0,1-.941,4.74,2.158,2.158,0,0,1,.169,6.67,2.166,2.166,0,0,1-.74,8.452,4.657,4.657,0,0,1-3.6,9.158,5.283,5.283,0,0,1-9,5.563l-3.964,2.318a8.347,8.347,0,0,0,3.36,4.25A10.494,10.494,0,0,0-3.73,13.693a9.507,9.507,0,0,0,6.166-1.915A6.3,6.3,0,0,0,4.8,6.6,6.571,6.571,0,0,0,4.552,4.74a6.546,6.546,0,0,0-.6-1.462" transform="translate(12.969 10.767)" fill="#fff"/>
      </g>
    </g>
    <path id="Path_69" data-name="Path 69" d="M15.016-14.471h4.335v-16.8H15.016Z" transform="translate(4.571 5.541)" fill="#fff"/>
    <g id="Group_60" data-name="Group 60" transform="translate(0 -49.474)" clip-path="url(#clip-path)">
      <g id="Group_57" data-name="Group 57" transform="translate(26.675 23.274)">
        <path id="Path_70" data-name="Path 70" d="M2.18,0A5.6,5.6,0,0,0-2.827,2.352V.471H-7.16v16.8h4.333V8.2A4.335,4.335,0,0,1-1.818,5.073,3.569,3.569,0,0,1,.87,4.032a3.305,3.305,0,0,1,2.418.891A3.438,3.438,0,0,1,4.2,7.492V17.27H8.529V6.955a7.015,7.015,0,0,0-1.8-5.107A6.089,6.089,0,0,0,2.18,0" transform="translate(7.16)" fill="#fff"/>
      </g>
      <g id="Group_58" data-name="Group 58" transform="translate(44.179 23.273)">
        <path id="Path_71" data-name="Path 71" d="M3.207.6A6.331,6.331,0,0,0-2.169-1.958,7.927,7.927,0,0,0-8.117.562a8.473,8.473,0,0,0-2.418,6.081,8.481,8.481,0,0,0,2.4,6.1,7.929,7.929,0,0,0,5.964,2.5,6.33,6.33,0,0,0,5.375-2.553v1.814a3.939,3.939,0,0,1-1.175,3.058A4.6,4.6,0,0,1-1.2,18.639a4.588,4.588,0,0,1-4.4-2.352l-3.7,2.117a7.285,7.285,0,0,0,3.175,3.058A10.507,10.507,0,0,0-1.33,22.5a9.64,9.64,0,0,0,6.2-2.051,7.158,7.158,0,0,0,2.571-5.947V-1.487H3.207ZM1.879,9.954A4.637,4.637,0,0,1-1.5,11.248,4.638,4.638,0,0,1-4.874,9.954,4.418,4.418,0,0,1-6.2,6.643,4.38,4.38,0,0,1-4.874,3.368,4.638,4.638,0,0,1-1.5,2.074,4.637,4.637,0,0,1,1.879,3.368,4.381,4.381,0,0,1,3.207,6.643,4.419,4.419,0,0,1,1.879,9.954" transform="translate(10.535 1.958)" fill="#fff"/>
      </g>
      <g id="Group_59" data-name="Group 59" transform="translate(64.809 23.744)">
        <path id="Path_72" data-name="Path 72" d="M2.65,2.117A4.339,4.339,0,0,1,1.643,5.242,3.573,3.573,0,0,1-1.045,6.283a3.3,3.3,0,0,1-2.42-.891,3.441,3.441,0,0,1-.908-2.57V-6.955H-8.706V3.362a7.009,7.009,0,0,0,1.8,5.105,6.075,6.075,0,0,0,4.552,1.848A5.6,5.6,0,0,0,2.65,7.963V9.846H6.985v-16.8H2.65Z" transform="translate(8.706 6.955)" fill="#fff"/>
      </g>
    </g>
    <path id="Path_74" data-name="Path 74" d="M68.158-45.329H63.823v35.138h4.335Z" transform="translate(19.428 1.262)" fill="#fff"/>
    <g id="Group_65" data-name="Group 65" transform="translate(0 -49.474)" clip-path="url(#clip-path)">
      <g id="Group_61" data-name="Group 61" transform="translate(89.67 23.274)">
        <path id="Path_75" data-name="Path 75" d="M1.905,4.14A6.6,6.6,0,0,0,7.381,1.688V3.669h4.335v-16.8H7.381v1.983A6.6,6.6,0,0,0,1.905-13.6a7.617,7.617,0,0,0-5.763,2.57,8.882,8.882,0,0,0-2.4,6.3,8.88,8.88,0,0,0,2.4,6.3A7.613,7.613,0,0,0,1.905,4.14M-.615-8.141A4.484,4.484,0,0,1,2.711-9.468,4.541,4.541,0,0,1,6.055-8.141a4.619,4.619,0,0,1,1.327,3.41A4.616,4.616,0,0,1,6.055-1.32,4.531,4.531,0,0,1,2.711.006,4.474,4.474,0,0,1-.615-1.32a4.645,4.645,0,0,1-1.31-3.411,4.648,4.648,0,0,1,1.31-3.41" transform="translate(6.259 13.6)" fill="#fff"/>
      </g>
      <g id="Group_62" data-name="Group 62" transform="translate(110.465 23.408)">
        <path id="Path_76" data-name="Path 76" d="M1.012.753V-2.136H-3.323v16.8H1.012V6.633A3.85,3.85,0,0,1,2.574,3.171a5.112,5.112,0,0,1,3.544-.806V-2.473a6.094,6.094,0,0,0-3.107.806,4.522,4.522,0,0,0-2,2.42" transform="translate(3.323 2.473)" fill="#fff"/>
      </g>
      <g id="Group_63" data-name="Group 63" transform="translate(120.914 16.387)">
        <path id="Path_77" data-name="Path 77" d="M.619,1.247a2.583,2.583,0,0,0,1.9-.789,2.548,2.548,0,0,0,.79-1.865,2.609,2.609,0,0,0-.79-1.882,2.563,2.563,0,0,0-1.9-.8,2.531,2.531,0,0,0-1.865.8,2.612,2.612,0,0,0-.789,1.882A2.551,2.551,0,0,0-1.246.457a2.551,2.551,0,0,0,1.865.789" transform="translate(2.035 4.095)" fill="#fff"/>
      </g>
      <g id="Group_64" data-name="Group 64" transform="translate(19.084 16.386)">
        <path id="Path_78" data-name="Path 78" d="M.619,0A2.528,2.528,0,0,0-1.246.806a2.608,2.608,0,0,0-.789,1.882,2.551,2.551,0,0,0,.789,1.864,2.551,2.551,0,0,0,1.865.789,2.583,2.583,0,0,0,1.9-.789,2.547,2.547,0,0,0,.79-1.864A2.6,2.6,0,0,0,2.517.806,2.559,2.559,0,0,0,.619,0" transform="translate(2.035)" fill="#fff"/>
      </g>
    </g>
    <path id="Path_80" data-name="Path 80" d="M93.083-14.471h4.335v-16.8H93.083Z" transform="translate(28.335 5.541)" fill="#fff"/>
    <g id="Group_68" data-name="Group 68" transform="translate(0 -49.474)" clip-path="url(#clip-path)">
      <g id="Group_66" data-name="Group 66" transform="translate(127.264 19.041)">
        <path id="Path_81" data-name="Path 81" d="M.682,3.7q0,3.461,1.831,4.805A7.2,7.2,0,0,0,7.7,9.345v-3.9c.08-.007.094-.017,0-.033v.031c-.162.013-.595.008-.968-.013a2.006,2.006,0,0,1-1.277-.455A1.657,1.657,0,0,1,5.017,3.7V-3.288h3.8L7.071-7.454H5.017v-4.7L.682-10.847v3.393H-2.241v4.166H.682Z" transform="translate(2.241 12.158)" fill="#fff"/>
      </g>
      <g id="Group_67" data-name="Group 67" transform="translate(136.232 24.134)">
        <path id="Path_82" data-name="Path 82" d="M3.548,0,.932,9.313.145,12.1-4.594,0H-9.331L-1.97,17.388l-.183.425-.164.377a5.16,5.16,0,0,1-1.565,2.486,4.042,4.042,0,0,1-2.456.826h-5.317l1.743,3.942c5.315.111,7.156-.376,8.541-1.462A8.735,8.735,0,0,0,.722,21.5a15.5,15.5,0,0,0,1.246-2.747L3.11,15.233,8,0Z" transform="translate(11.655)" fill="#fff"/>
      </g>
    </g>
  </g>
</svg>
